{
.appVersion = "3151";
.formatVersion = 3;
DisplayStrings = (
"ÁÁĂĂÂÂÄÄÀÀĀĀĄĄÅÅǺǺÃÃǼǼĆĆČČÇÇĈĈĊĊĎĎÉÉĔĔĚĚÊÊËËĖĖÈÈĒĒĘĘĞĞĜĜĠĠĦĦĤĤÍÍĬĬÎÎÏÏİİÌÌĪĪĮĮĨĨĴĴĹĹĽĽŃŃŇŇÑÑÓÓŎŎÔÔÖÖÒÒŐŐŌŌØØǾǾÕÕŔŔŘŘŚŚŠŠŞŞŜŜŦŦŤŤÚÚŬŬÛÛÜÜÙÙŰŰŪŪŲŲŮŮŨŨẂẂŴŴẄẄẀẀÝÝŶŶŸŸỲỲŹŹŽŽŻŻŢŢááăăââääààāāąąååǻǻããǽǽććččççĉĉċċďďđđééĕĕěěêêëëėėèèēēęęğğĝĝġġħħĥĥííĭĭîîïïììīīįįĩĩĵĵĺĺľľńńŉŉňňññóóŏŏôôööòòőőōōøøǿǿõõŕŕřřśśššşşŝŝŧŧťťúúŭŭûûüüùùűűūūţţųųůůũũẃẃŵŵẅẅẁẁýýŷŷÿÿỳỳźźžžżż₣₣"
);
classes = (
{
automatic = 1;
code = "A Aacute Abreve Acircumflex Adieresis Agrave Amacron Aogonek Aring Aringacute Atilde AE AEacute B C Cacute Ccaron Ccedilla Ccircumflex Cdotaccent D Eth Dcaron Dcroat E Eacute Ebreve Ecaron Ecircumflex Edieresis Edotaccent Egrave Emacron Eogonek F G Gbreve Gcircumflex Gcommaaccent Gdotaccent H Hbar Hcircumflex I IJ Iacute Ibreve Icircumflex Idieresis Idotaccent Igrave Imacron Iogonek Itilde J Jcircumflex K Kcommaaccent L Lacute Lcaron Lcommaaccent Ldot Lslash M N Nacute Ncaron Ncommaaccent Ntilde Eng O Oacute Obreve Ocircumflex Odieresis Ograve Ohungarumlaut Omacron Oslash Oslashacute Otilde OE P Thorn Q R Racute Rcaron Rcommaaccent S Sacute Scaron Scedilla Scircumflex Scommaaccent T Tbar Tcaron Tcedilla Tcommaaccent U Uacute Ubreve Ucircumflex Udieresis Ugrave Uhungarumlaut Umacron Uogonek Uring Utilde V W Wacute Wcircumflex Wdieresis Wgrave X Y Yacute Ycircumflex Ydieresis Ygrave Z Zacute Zcaron Zdotaccent Delta Omega";
name = Uppercase;
}
);
date = "2023-02-17 10:28:46 +0000";
familyName = Strait;
featurePrefixes = (
{
automatic = 1;
code = "languagesystem DFLT dflt;

languagesystem latn dflt;
languagesystem latn MOL;
languagesystem latn ROM;
";
name = Languagesystems;
}
);
features = (
{
automatic = 1;
code = "feature subs;
feature sinf;
feature sups;
feature frac;
feature ordn;
feature case;
feature salt;
";
tag = aalt;
},
{
code = "# GSUB feature: Localized Forms
# Lookups: 2

  script latn; # Latin
    language MOL ; # Moldavian
      lookup locl_latnMOL_latnROM_1;

    language ROM ; # Romanian

glyphs = (
{
glyphname = A;
layers = (
{
layerId = master01;
shapes = (
{
closed = 1;
nodes = (
(123,0,l),
(164,177,l),
(384,177,l),
(425,0,l),
(513,0,l),
(347,700,l),
(201,700,l),
(35,0,l,{
name = hr00;
})
);
},
{
closed = 1;
nodes = (
(367,247,l),
(180,247,l),
(271,636,l),
(277,636,l)
);
}
);
width = 548;
}
);
unicode = 65;
},
{
glyphname = AE;
layers = (
{
layerId = master01;
shapes = (
{
closed = 1;
nodes = (
(88,0,l),
(195,276,l),
(373,276,l),
(373,0,l),
(716,0,l),
(716,70,l),
(459,70,l),
(459,276,l),
(676,276,l),
(676,346,l),
(459,346,l),
(459,630,l),
(696,630,l),
(706,700,l),
(275,700,l),
(0,0,l,{
name = hr00;
})
);
},
{
closed = 1;
nodes = (
(332,630,l),
(373,630,l),
(373,346,l),
(222,346,l)
);
}
);
width = 756;
}
);
unicode = 198;
},
{
glyphname = B;
layers = (
{
layerId = master01;
shapes = (
{
closed = 1;
nodes = (
(90,0,l),
(261,0,ls),
(420,0,o),
(473,59,o),
(473,195,cs),
(473,283,o),
(446,329,o),
(383,351,c),
(432,375,o),
(453,421,o),
(453,503,cs,{
name = hr01;
}),
(453,641,o),
(404,700,o),
(256,700,cs),
(90,700,l)
);
},
{
closed = 1;
nodes = (
(386,114,o),
(386,71,o),
(262,71,cs),
(176,71,l),
(176,320,l),
(252,320,ls),
(386,320,o),
(386,277,o),
(386,215,cs),
(386,176,l,{
name = hr02;
})
);
},
{
closed = 1;
nodes = (
(366,420,o),
(366,377,o),
(245,377,cs),
(176,377,l),
(176,629,l),
(255,629,ls),
(366,629,o),
(366,586,o),
(366,522,cs),
(366,483,l,{
name = hr03;
})
);
}
);
width = 548;
}
);
unicode = 66;
},
{
glyphname = C;
layers = (
{
layerId = master01;
shapes = (
{
closed = 1;
nodes = (
(77,712,o),
(75,615,o),
(75,349,cs),
(75,82,o),
(77,-12,o),
(296,-12,cs),
(352,-12,o),
(408,3,o),
(439,16,c),
(420,75,l),
(381,65,o),
(347,59,o),
(297,59,cs),
(162,59,o),
(162,115,o),
(162,193,cs),
(162,507,ls),
(162,585,o),
(162,641,o),
(297,641,cs),
(348,641,o),
(386,635,o),
(411,629,c),
(426,694,l),
(381,708,o),
(323,712,o),
(296,712,c,{
name = hr00;
})
);
}
);
width = 479;
}
);
unicode = 67;
},
{
glyphname = D;
layers = (
{
layerId = master01;
shapes = (
{
closed = 1;
nodes = (
(90,0,l),
(290,0,ls),
(510,0,o),
(512,82,o),
(512,349,cs),
(512,615,o),
(510,700,o),
(290,700,cs),
(90,700,l,{
name = hr00;
})
);
},
{
closed = 1;
nodes = (
(291,628,ls),
(425,628,o),
(425,575,o),
(425,497,cs),
(425,205,ls),
(425,127,o),
(425,74,o),
(291,74,cs),
(176,74,l),
(176,628,l)
);
}
);
width = 587;
}
);
unicode = 68;
},
{
glyphname = Eth;
layers = (
{
layerId = master01;
shapes = (
{
closed = 1;
nodes = (
(36,321,l),
(90,321,l),
(90,0,l),
(290,0,ls),
(510,0,o),
(512,82,o),
(512,349,cs),
(512,615,o),
(510,700,o),
(290,700,cs),
(90,700,l),
(90,381,l),
(36,381,l,{
name = hr00;
})
);
},
{
closed = 1;
nodes = (
(291,628,ls),
(425,628,o),
(425,575,o),
(425,497,cs),
(425,205,ls),
(425,127,o),
(425,74,o),
(291,74,cs),
(176,74,l),
(176,321,l),
(316,321,l),
(316,381,l),
(176,381,l),
(176,628,l)
);
}
);
width = 587;
}
);
unicode = 208;
},
{
glyphname = E;
layers = (
{
layerId = master01;
shapes = (
{
closed = 1;
nodes = (
(90,0,l),
(433,0,l),
(433,70,l),
(176,70,l),
(176,316,l),
(393,316,l),
(393,386,l),
(176,386,l),
(176,630,l),
(413,630,l),
(423,700,l),
(90,700,l,{
name = hr00;
})
);
}
);
width = 473;
}
);
unicode = 69;
},
{
glyphname = F;
layers = (
{
layerId = master01;
shapes = (
{
closed = 1;
nodes = (
(90,700,l),
(90,0,l),
(176,0,l),
(176,316,l),
(383,316,l),
(383,386,l),
(176,386,l),
(176,630,l),
(403,630,l),
(413,700,l,{
name = hr00;
})
);
}
);
width = 433;
}
);
unicode = 70;
},
{
glyphname = G;
layers = (
{
layerId = master01;
shapes = (
{
closed = 1;
nodes = (
(297,355,l),
(297,295,l),
(392,295,l),
(392,68,l),
(363,62,o),
(335,59,o),
(297,59,cs),
(162,59,o),
(162,115,o),
(162,193,cs),
(162,510,ls),
(162,588,o),
(162,641,o),
(297,641,cs),
(348,641,o),
(406,631,o),
(431,625,c),
(446,690,l),
(403,703,o),
(342,712,o),
(296,712,cs),
(77,712,o),
(75,615,o),
(75,349,cs),
(75,82,o),
(77,-12,o),
(296,-12,cs),
(352,-12,o),
(432,4,o),
(472,26,c),
(472,355,l,{
name = hr00;
})
);
}
);
width = 552;
}
);
unicode = 71;
},
{
glyphname = H;
layers = (
{
layerId = master01;
shapes = (
{
closed = 1;
nodes = (
(416,700,l),
(416,386,l),
(176,386,l),
(176,700,l),
(90,700,l),
(90,0,l),
(176,0,l),
(176,316,l),
(416,316,l),
(416,0,l),
(502,0,l),
(502,700,l,{
name = hr00;
})
);
}
);
width = 592;
}
);
unicode = 72;
},
{
glyphname = I;
layers = (
{
layerId = master01;
shapes = (
{
closed = 1;
nodes = (
(90,700,l),
(90,0,l),
(176,0,l),
(176,700,l,{
name = hr00;
})
);
}
);
width = 266;
}
);
unicode = 73;
},
{
glyphname = J;
layers = (
{
layerId = master01;
shapes = (
{
closed = 1;
nodes = (
(100,700,l),
(100,135,ls),
(100,82,o),
(99,49,o),
(26,47,c),
(26,-9,l),
(38,-11,o),
(49,-12,o),
(59,-12,cs),
(182,-12,o),
(186,73,o),
(186,157,cs),
(186,700,l,{
name = hr00;
})
);
}
);
width = 271;
}
);
unicode = 74;
},
{
glyphname = K;
layers = (
{
layerId = master01;
shapes = (
{
closed = 1;
nodes = (
(176,700,l),
(90,700,l),
(90,0,l),
(176,0,l,{
name = hr00;
})
);
},
{
closed = 1;
nodes = (
(202,350,l),
(386,0,l),
(478,0,l),
(293,350,l),
(477,700,l),
(386,700,l)
);
}
);
width = 518;
}
);
unicode = 75;
},
{
glyphname = L;
layers = (
{
layerId = master01;
shapes = (
{
closed = 1;
nodes = (
(90,0,l),
(402,0,l),
(402,70,l),
(176,70,l),
(176,700,l),
(90,700,l,{
name = hr00;
})
);
}
);
width = 422;
}
);
unicode = 76;
},
{
glyphname = Lslash;
layers = (
{
layerId = master01;
shapes = (
{
closed = 1;
nodes = (
(24,245,l),
(90,278,l),
(90,0,l),
(402,0,l),
(402,70,l),
(176,70,l),
(176,322,l),
(273,372,l),
(243,430,l),
(176,396,l),
(176,700,l),
(90,700,l),
(90,352,l),
(-6,303,l,{
name = hr00;
})
);
}
);
width = 422;
}
);
unicode = 321;
},
{
glyphname = M;
layers = (
{
layerId = master01;
shapes = (
{
closed = 1;
nodes = (
(410,170,l),
(542,563,l),
(548,563,l),
(561,0,l),
(644,0,l),
(623,700,l),
(513,700,l),
(366,258,l),
(360,258,l),
(213,700,l),
(103,700,l),
(82,0,l),
(165,0,l),
(178,563,l),
(184,563,l),
(316,170,l,{
name = hr00;
})
);
}
);
width = 726;
}
);
unicode = 77;
},
{
glyphname = N;
layers = (
{
layerId = master01;
shapes = (
{
closed = 1;
nodes = (
(90,700,l),
(90,0,l),
(174,0,l),
(174,584,l),
(180,584,l),
(381,0,l),
(507,0,l),
(507,700,l),
(423,700,l),
(423,116,l),
(417,116,l),
(216,700,l,{
name = hr00;
})
);
}
);
width = 597;
}
);
unicode = 78;
},
{
glyphname = Eng;
layers = (
{
layerId = master01;
shapes = (
{
closed = 1;
nodes = (
(423,700,l),
(423,182,l),
(418,182,l),
(412,220,o),
(403,250,o),
(390,280,cs),
(216,700,l),
(90,700,l),
(90,0,l),
(174,0,l),
(174,584,l),
(180,584,l),
(425,-6,l),
(425,-54,ls),
(425,-105,o),
(419,-130,o),
(384,-130,cs),
(366,-130,o),
(353,-127,o),
(335,-122,c),
(317,-180,l),
(337,-189,o),
(361,-194,o),
(386,-194,cs),
(503,-194,o),
(507,-113,o),
(507,-33,cs),
(507,700,l,{
name = hr00;
})
);
}
);
width = 597;
}
);
unicode = 330;
},
{
glyphname = O;
layers = (
{
layerId = master01;
shapes = (
{
closed = 1;
nodes = (
(516,-12,o),
(518,82,o),
(518,349,cs),
(518,615,o),
(516,712,o),
(296,712,cs),
(77,712,o),
(75,615,o),
(75,349,cs),
(75,82,o),
(77,-12,o),
(296,-12,c,{
name = hr00;
})
);
},
{
closed = 1;
nodes = (
(431,115,o),
(431,59,o),
(297,59,cs),
(162,59,o),
(162,115,o),
(162,193,cs),
(162,507,ls),
(162,585,o),
(162,641,o),
(297,641,cs),
(431,641,o),
(431,585,o),
(431,507,cs),
(431,193,l)
);
}
);
width = 593;
}
);
unicode = 79;
},
{
glyphname = OE;
layers = (
{
layerId = master01;
shapes = (
{
closed = 1;
nodes = (
(774,70,l),
(487,70,l),
(515,119,o),
(517,198,o),
(518,316,c),
(734,316,l),
(734,386,l),
(518,386,l),
(517,503,o),
(514,581,o),
(486,630,c),
(754,630,l),
(764,700,l),
(296,700,ls),
(77,700,o),
(75,615,o),
(75,349,cs),
(75,82,o),
(77,0,o),
(296,0,cs),
(774,0,l,{
name = hr00;
})
);
},
{
closed = 1;
nodes = (
(431,127,o),
(431,71,o),
(297,71,cs),
(162,71,o),
(162,127,o),
(162,205,cs),
(162,495,ls),
(162,573,o),
(162,629,o),
(297,629,cs),
(431,629,o),
(431,573,o),
(431,495,cs),
(431,205,l)
);
}
);
width = 814;
}
);
unicode = 338;
},
{
glyphname = P;
layers = (
{
layerId = master01;
shapes = (
{
closed = 1;
nodes = (
(90,0,l),
(176,0,l),
(176,248,l),
(241,248,ls),
(400,248,o),
(463,307,o),
(463,474,cs),
(463,641,o),
(400,700,o),
(241,700,cs),
(90,700,l,{
name = hr00;
})
);
},
{
closed = 1;
nodes = (
(376,372,o),
(376,319,o),
(242,319,cs),
(176,319,l),
(176,629,l),
(242,629,ls),
(376,629,o),
(376,576,o),
(376,498,cs),
(376,450,l)
);
}
);
width = 513;
}
);
unicode = 80;
},
{
glyphname = Thorn;
layers = (
{
layerId = master01;
shapes = (
{
closed = 1;
nodes = (
(90,700,l),
(90,0,l),
(176,0,l),
(176,124,l),
(241,124,ls),
(400,124,o),
(463,183,o),
(463,350,cs),
(463,517,o),
(400,576,o),
(241,576,cs),
(176,576,l),
(176,700,l,{
name = hr00;
})
);
},
{
closed = 1;
nodes = (
(376,248,o),
(376,195,o),
(242,195,cs),
(176,195,l),
(176,505,l),
(242,505,ls),
(376,505,o),
(376,452,o),
(376,374,cs),
(376,326,l)
);
}
);
width = 513;
}
);
unicode = 222;
},
{
glyphname = Q;
layers = (
{
layerId = master01;
shapes = (
{
closed = 1;
nodes = (
(365,-124,l),
(340,-21,l),
(334,-16,l),
(334,-11,l),
(516,0,o),
(518,98,o),
(518,349,cs),
(518,615,o),
(516,712,o),
(296,712,cs),
(77,712,o),
(75,615,o),
(75,349,cs),
(75,95,o),
(77,-2,o),
(266,-11,c),
(287,-124,l,{
name = hr00;
})
);
},
{
closed = 1;
nodes = (
(431,115,o),
(431,59,o),
(297,59,cs),
(162,59,o),
(162,115,o),
(162,193,cs),
(162,507,ls),
(162,585,o),
(162,641,o),
(297,641,cs),
(431,641,o),
(431,585,o),
(431,507,cs),
(431,193,l)
);
}
);
width = 593;
}
);
unicode = 81;
},
{
glyphname = R;
layers = (
{
layerId = master01;
shapes = (
{
closed = 1;
nodes = (
(480,0,l),
(365,287,l),
(433,314,o),
(463,375,o),
(463,484,cs),
(463,644,o),
(400,700,o),
(241,700,cs),
(90,700,l),
(90,0,l),
(176,0,l),
(176,268,l),
(241,268,ls),
(255,268,o),
(269,268,o),
(282,269,c),
(392,0,l,{
name = hr00;
})
);
},
{
closed = 1;
nodes = (
(376,389,o),
(376,339,o),
(242,339,cs),
(176,339,l),
(176,629,l),
(242,629,ls),
(376,629,o),
(376,579,o),
(376,506,cs),
(376,462,l)
);
}
);
width = 540;
}
);
unicode = 82;
},
{
glyphname = S;
layers = (
{
layerId = master01;
shapes = (
{
closed = 1;
nodes = (
(385,-12,o),
(435,77,o),
(435,187,cs),
(435,325,o),
(387,368,o),
(308,380,cs),
(214,394,ls),
(152,403,o),
(141,444,o),
(141,518,cs),
(141,626,o),
(191,641,o),
(247,641,cs),
(308,641,o),
(368,627,o),
(393,620,c),
(411,680,l),
(368,696,o),
(312,712,o),
(246,712,cs),
(122,712,o),
(57,638,o),
(57,518,cs),
(57,401,o),
(75,335,o),
(174,320,cs),
(273,306,ls),
(344,296,o),
(351,240,o),
(351,188,cs),
(351,90,o),
(312,59,o),
(237,59,cs),
(176,59,o),
(110,74,o),
(73,87,c),
(55,25,l),
(110,1,o),
(182,-12,o),
(248,-12,c,{
name = hr00;
})
);
}
);
width = 490;
}
);
unicode = 83;
},
{
glyphname = T;
layers = (
{
layerId = master01;
shapes = (
{
closed = 1;
nodes = (
(10,630,l),
(157,630,l),
(157,0,l),
(243,0,l),
(243,630,l),
(390,630,l),
(390,700,l),
(10,700,l,{
name = hr00;
})
);
}
);
width = 400;
}
);
unicode = 84;
},
{
glyphname = U;
layers = (
{
layerId = master01;
shapes = (
{
closed = 1;
nodes = (
(440,193,ls),
(440,115,o),
(440,62,o),
(306,62,cs),
(171,62,o),
(171,115,o),
(171,193,cs),
(171,700,l),
(85,700,l),
(85,349,ls),
(85,82,o),
(86,-12,o),
(305,-12,cs),
(525,-12,o),
(526,82,o),
(526,349,cs),
(526,700,l),
(440,700,l,{
name = hr00;
})
);
}
);
width = 611;
}
);
unicode = 85;
},
{
glyphname = V;
layers = (
{
layerId = master01;
shapes = (
{
closed = 1;
nodes = (
(333,0,l),
(497,700,l),
(412,700,l),
(269,57,l),
(263,57,l),
(120,700,l),
(35,700,l),
(199,0,l,{
name = hr00;
})
);
}
);
width = 532;
}
);
unicode = 86;
},
{
glyphname = W;
layers = (
{
layerId = master01;
shapes = (
{
closed = 1;
nodes = (
(672,0,l),
(790,700,l),
(705,700,l),
(604,57,l),
(598,57,l),
(470,700,l),
(375,700,l),
(247,57,l),
(241,57,l),
(140,700,l),
(55,700,l),
(173,0,l),
(308,0,l),
(419,572,l),
(425,572,l),
(537,0,l,{
name = hr00;
})
);
}
);
width = 845;
}
);
unicode = 87;
},
{
glyphname = X;
layers = (
{
layerId = master01;
shapes = (
{
closed = 1;
nodes = (
(257,435,l),
(122,700,l),
(31,700,l),
(210,350,l),
(30,0,l),
(122,0,l),
(257,265,l),
(393,0,l),
(485,0,l),
(305,350,l),
(484,700,l),
(393,700,l,{
name = hr00;
})
);
}
);
width = 515;
}
);
unicode = 88;
},
{
glyphname = Y;
layers = (
{
layerId = master01;
shapes = (
{
closed = 1;
nodes = (
(279,225,l),
(453,700,l),
(365,700,l),
(242,319,l),
(236,319,l),
(113,700,l),
(25,700,l),
(199,225,l),
(199,0,l),
(279,0,l,{
name = hr00;
})
);
}
);
width = 478;
}
);
unicode = 89;
},
{
glyphname = Z;
layers = (
{
layerId = master01;
shapes = (
{
closed = 1;
nodes = (
(60,630,l),
(355,630,l),
(40,59,l),
(40,0,l),
(442,0,l),
(442,70,l),
(133,70,l),
(447,641,l),
(447,700,l),
(60,700,l,{
name = hr00;
})
);
}
);
width = 487;
}
);
unicode = 90;
},
{
glyphname = a;
layers = (
{
layerId = master01;
shapes = (
{
closed = 1;
nodes = (
(417,0,l),
(417,375,ls),
(417,470,o),
(399,530,o),
(256,530,cs),
(189,530,o),
(132,512,o),
(91,492,c),
(107,442,l),
(144,454,o),
(198,464,o),
(246,464,cs),
(299,464,o),
(335,450,o),
(335,375,cs),
(335,300,l),
(167,298,o),
(70,295,o),
(70,153,cs),
(70,68,o),
(86,-12,o),
(205,-12,cs,{
name = hr01;
}),
(251,-12,o),
(307,-10,o),
(359,49,c),
(372,0,l)
);
},
{
closed = 1;
nodes = (
(335,90,o),
(319,53,o),
(240,53,cs,{
name = hr03;
}),
(156,53,o),
(152,86,o),
(152,142,cs),
(152,165,ls),
(152,243,o),
(240,243,o),
(335,243,c),
(335,140,l)
);
}
);
width = 497;
}
);
unicode = 97;
},
{
glyphname = ae;
layers = (
{
layerId = master01;
shapes = (
{
closed = 1;
nodes = (
(450,531,o),
(410,518,o),
(384,494,c),
(361,517,o),
(322,531,o),
(256,531,cs),
(189,531,o),
(132,513,o),
(91,493,c),
(107,443,l),
(144,455,o),
(198,465,o),
(246,465,cs),
(299,465,o),
(335,451,o),
(335,376,cs),
(335,288,l),
(167,288,o),
(70,283,o),
(70,147,cs),
(70,61,o),
(87,-12,o),
(212,-12,cs),
(252,-12,o),
(317,-10,o),
(362,53,c),
(384,11,o),
(425,-12,o),
(505,-12,cs),
(572,-12,o),
(620,2,o),
(671,32,c),
(655,82,l),
(608,62,o),
(554,54,o),
(506,54,cs),
(455,54,o),
(417,67,o),
(417,137,cs),
(417,231,l),
(585,231,o),
(682,235,o),
(682,381,cs),
(682,467,o),
(665,531,o),
(513,531,c,{
name = hr00;
})
);
},
{
closed = 1;
nodes = (
(417,431,o),
(437,465,o),
(512,465,cs),
(596,465,o),
(600,432,o),
(600,376,cs),
(600,356,ls),
(600,289,o),
(517,288,o),
(417,288,c),
(417,385,l)
);
},
{
closed = 1;
nodes = (
(335,90,o),
(319,53,o),
(240,53,cs),
(156,53,o),
(152,86,o),
(152,142,cs),
(152,162,ls),
(152,231,o),
(240,231,o),
(335,231,c),
(335,140,l)
);
}
);
width = 737;
}
);
unicode = 230;
},
{
glyphname = b;
layers = (
{
layerId = master01;
shapes = (
{
closed = 1;
nodes = (
(172,424,o),
(188,461,o),
(267,461,cs),
(351,461,o),
(355,428,o),
(355,372,cs),
(355,147,ls),
(355,75,o),
(344,53,o),
(265,53,cs),
(233,53,o),
(202,58,o),
(172,64,c),
(172,374,l,{
name = hr00;
})
);
},
{
closed = 1;
nodes = (
(90,17,l),
(165,-5,o),
(230,-12,o),
(267,-12,cs),
(436,-12,o),
(439,84,o),
(439,284,cs),
(439,449,o),
(421,525,o),
(302,525,cs),
(262,525,o),
(208,524,o),
(167,486,c),
(167,720,l),
(90,720,l)
);
}
);
width = 514;
}
);
unicode = 98;
},
{
glyphname = c;
layers = (
{
layerId = master01;
shapes = (
{
closed = 1;
nodes = (
(77,531,o),
(75,427,o),
(75,260,cs),
(75,93,o),
(77,-12,o),
(246,-12,cs),
(299,-12,o),
(338,-2,o),
(373,14,c),
(361,68,l),
(323,59,o),
(286,52,o),
(254,52,cs),
(198,52,o),
(158,74,o),
(158,146,cs),
(158,374,ls),
(158,426,o),
(158,465,o),
(256,465,cs),
(304,465,o),
(331,460,o),
(355,454,c),
(371,507,l),
(330,525,o),
(280,531,o),
(254,531,c,{
name = hr00;
})
);
}
);
width = 405;
}
);
unicode = 99;
},
{
glyphname = d;
layers = (
{
layerId = master01;
shapes = (
{
closed = 1;
nodes = (
(342,90,o),
(326,53,o),
(247,53,cs),
(163,53,o),
(159,86,o),
(159,142,cs),
(159,367,ls),
(159,439,o),
(170,461,o),
(249,461,cs),
(281,461,o),
(312,456,o),
(342,450,c),
(342,140,l)
);
},
{
closed = 1;
nodes = (
(75,64,o),
(93,-12,o),
(212,-12,cs),
(258,-12,o),
(324,-10,o),
(366,49,c),
(379,0,l,{
name = hr01;
}),
(424,0,l),
(424,720,l),
(347,720,l),
(347,512,l),
(320,520,o),
(284,525,o),
(247,525,cs),
(78,525,o),
(75,429,o),
(75,229,c)
);
}
);
width = 514;
}
);
unicode = 100;
},
{
glyphname = eth;
layers = (
{
layerId = master01;
shapes = (
{
closed = 1;
nodes = (
(250,535,l),
(340,581,l),
(351,551,o),
(356,515,o),
(357,475,c),
(332,485,o),
(299,491,o),
(256,491,cs),
(75,491,o),
(75,395,o),
(75,240,cs),
(75,85,o),
(75,-12,o),
(256,-12,cs),
(438,-12,o),
(438,85,o),
(438,240,cs),
(438,452,ls),
(438,520,o),
(427,574,o),
(408,615,c),
(499,662,l),
(469,720,l),
(373,671,l),
(335,715,o),
(285,741,o),
(234,761,c),
(207,702,l),
(250,686,o),
(283,664,o),
(306,637,c),
(220,593,l,{
name = hr00;
})
);
},
{
closed = 1;
nodes = (
(353,93,o),
(353,53,o),
(256,53,cs),
(158,53,o),
(158,93,o),
(158,145,cs),
(158,334,ls),
(158,386,o),
(158,426,o),
(256,426,cs),
(353,426,o),
(353,386,o),
(353,334,cs),
(353,145,l)
);
}
);
width = 513;
}
);
unicode = 240;
},
{
glyphname = e;
layers = (
{
layerId = master01;
shapes = (
{
closed = 1;
nodes = (
(158,428,o),
(174,465,o),
(253,465,cs),
(337,465,o),
(341,432,o),
(341,376,cs),
(341,353,ls),
(341,275,o),
(253,275,o),
(158,275,c),
(158,378,l,{
name = hr00;
})
);
},
{
closed = 1;
nodes = (
(77,531,o),
(75,427,o),
(75,260,cs),
(75,93,o),
(77,-12,o),
(246,-12,cs),
(313,-12,o),
(361,2,o),
(412,32,c),
(396,82,l),
(349,62,o),
(295,54,o),
(247,54,cs),
(194,54,o),
(158,68,o),
(158,143,cs),
(158,218,l),
(326,220,o),
(423,223,o),
(423,375,cs),
(423,464,o),
(406,531,o),
(254,531,c)
);
}
);
width = 478;
}
);
unicode = 101;
},
{
glyphname = f;
layers = (
{
layerId = master01;
shapes = (
{
closed = 1;
nodes = (
(301,726,o),
(277,729,o),
(256,729,cs),
(139,729,o),
(122,647,o),
(119,519,c),
(50,505,l),
(50,461,l),
(119,461,l),
(119,0,l),
(201,0,l),
(201,461,l),
(295,461,l),
(295,520,l),
(201,520,l),
(201,554,ls),
(201,645,o),
(226,672,o),
(283,672,cs),
(295,672,o),
(308,671,o),
(323,669,c),
(329,721,l,{
name = hr00;
})
);
}
);
width = 321;
}
);
unicode = 102;
},
{
glyphname = g;
layers = (
{
layerId = master01;
shapes = (
{
closed = 1;
nodes = (
(342,111,o),
(326,74,o),
(247,74,cs),
(163,74,o),
(159,107,o),
(159,163,cs),
(159,372,ls),
(159,444,o),
(170,466,o),
(249,466,cs),
(281,466,o),
(312,461,o),
(342,455,c),
(342,161,l,{
name = hr00;
})
);
},
{
closed = 1;
nodes = (
(347,-114,o),
(311,-128,o),
(258,-128,cs),
(210,-128,o),
(156,-118,o),
(119,-106,c),
(103,-156,l),
(144,-176,o),
(201,-194,o),
(268,-194,cs),
(411,-194,o),
(429,-131,o),
(429,-36,cs),
(429,502,l),
(354,524,o),
(284,531,o),
(247,531,cs),
(78,531,o),
(75,429,o),
(75,259,cs),
(75,94,o),
(93,10,o),
(212,10,cs),
(252,10,o),
(306,11,o),
(347,49,c),
(347,-39,l)
);
}
);
width = 519;
}
);
unicode = 103;
},
{
glyphname = h;
layers = (
{
layerId = master01;
shapes = (
{
closed = 1;
nodes = (
(437,360,ls),
(437,445,o),
(421,525,o),
(302,525,cs),
(256,525,o),
(209,520,o),
(167,475,c),
(167,720,l),
(90,720,l),
(90,0,l),
(172,0,l),
(172,373,ls),
(172,423,o),
(188,460,o),
(267,460,cs),
(351,460,o),
(355,427,o),
(355,371,cs),
(355,0,l),
(437,0,l,{
name = hr00;
})
);
}
);
width = 517;
}
);
unicode = 104;
},
{
glyphname = i;
layers = (
{
layerId = master01;
shapes = (
{
closed = 1;
nodes = (
(90,520,l),
(90,0,l),
(172,0,l),
(172,520,l,{
name = hr00;
})
);
},
{
closed = 1;
nodes = (
(99,717,o),
(79,717,o),
(79,667,cs),
(79,616,o),
(99,616,o),
(131,616,cs),
(163,616,o),
(183,616,o),
(183,667,cs),
(183,717,o),
(163,717,o),
(131,717,c)
);
}
);
width = 262;
}
);
unicode = 105;
},
{
glyphname = idotless;
lastChange = "2023-02-17 10:31:29 +0000";
layers = (
{
layerId = master01;
shapes = (
{
closed = 1;
nodes = (
(90,520,l),
(90,0,l),
(172,0,l),
(172,520,l,{
name = hr00;
})
);
}
);
width = 262;
}
);
unicode = 305;
},
{
glyphname = j;
layers = (
{
layerId = master01;
shapes = (
{
closed = 1;
nodes = (
(99,717,o),
(79,717,o),
(79,667,cs),
(79,616,o),
(99,616,o),
(131,616,cs),
(163,616,o),
(183,616,o),
(183,667,cs),
(183,717,o),
(163,717,o),
(131,717,c,{
name = hr00;
})
);
},
{
closed = 1;
nodes = (
(90,-54,ls),
(90,-105,o),
(84,-130,o),
(49,-130,cs),
(31,-130,o),
(18,-127,o),
(0,-122,c),
(-18,-180,l),
(2,-189,o),
(26,-194,o),
(51,-194,cs),
(168,-194,o),
(172,-113,o),
(172,-33,cs),
(172,520,l),
(90,520,l)
);
}
);
width = 262;
}
);
unicode = 106;
},
{
glyphname = jdotless;
lastChange = "2023-02-17 10:31:29 +0000";
layers = (
{
layerId = master01;
shapes = (
{
closed = 1;
nodes = (
(90,-54,ls),
(90,-105,o),
(84,-130,o),
(49,-130,cs),
(31,-130,o),
(18,-127,o),
(0,-122,c),
(-18,-180,l),
(2,-189,o),
(26,-194,o),
(51,-194,cs),
(168,-194,o),
(172,-113,o),
(172,-33,cs),
(172,520,l),
(90,520,l,{
name = hr00;
})
);
}
);
width = 262;
}
);
unicode = 567;
},
{
glyphname = k;
layers = (
{
layerId = master01;
shapes = (
{
closed = 1;
nodes = (
(172,720,l),
(90,720,l),
(90,0,l),
(172,0,l,{
name = hr00;
})
);
},
{
closed = 1;
nodes = (
(196,276,l),
(353,0,l),
(440,0,l),
(283,276,l),
(432,520,l),
(345,520,l)
);
}
);
width = 470;
}
);
unicode = 107;
},
{
glyphname = kgreenlandic;
layers = (
{
layerId = master01;
shapes = (
{
closed = 1;
nodes = (
(172,520,l),
(90,520,l),
(90,0,l),
(172,0,l,{
name = hr00;
})
);
},
{
closed = 1;
nodes = (
(196,276,l),
(353,0,l),
(440,0,l),
(283,276,l),
(432,520,l),
(345,520,l)
);
}
);
width = 470;
}
);
unicode = 312;
},
{
glyphname = l;
layers = (
{
layerId = master01;
shapes = (
{
closed = 1;
nodes = (
(172,0,l),
(172,720,l),
(90,720,l),
(90,0,l,{
name = hr00;
})
);
}
);
width = 262;
}
);
unicode = 108;
},
{
glyphname = lslash;
layers = (
{
layerId = master01;
shapes = (
{
closed = 1;
nodes = (
(22,345,l),
(90,379,l),
(90,0,l),
(172,0,l),
(172,421,l),
(271,472,l),
(241,530,l),
(172,495,l),
(172,720,l),
(90,720,l),
(90,453,l),
(-8,403,l,{
name = hr00;
})
);
}
);
width = 262;
}
);
unicode = 322;
},
{
glyphname = m;
layers = (
{
layerId = master01;
shapes = (
{
closed = 1;
nodes = (
(672,366,ls),
(672,451,o),
(656,531,o),
(541,531,cs),
(499,531,o),
(441,529,o),
(402,476,c),
(384,509,o),
(351,531,o),
(291,531,cs),
(248,531,o),
(187,530,o),
(148,471,c),
(135,520,l,{
name = hr01;
}),
(90,520,l),
(90,0,l),
(172,0,l),
(172,379,ls),
(172,429,o),
(187,466,o),
(259,466,cs,{
name = hr02;
}),
(336,466,o),
(340,433,o),
(340,377,cs),
(340,0,l),
(422,0,l),
(422,379,ls),
(422,429,o),
(437,466,o),
(509,466,cs),
(586,466,o),
(590,433,o),
(590,377,cs),
(590,0,l),
(672,0,l)
);
}
);
width = 752;
}
);
unicode = 109;
},
{
glyphname = n;
layers = (
{
layerId = master01;
shapes = (
{
closed = 1;
nodes = (
(437,366,ls),
(437,451,o),
(421,531,o),
(302,531,cs),
(256,531,o),
(190,530,o),
(148,471,c),
(135,520,l,{
name = hr01;
}),
(90,520,l),
(90,0,l),
(172,0,l),
(172,379,ls),
(172,429,o),
(188,466,o),
(267,466,cs,{
name = hr02;
}),
(351,466,o),
(355,433,o),
(355,377,cs),
(355,0,l),
(437,0,l)
);
}
);
width = 517;
}
);
unicode = 110;
},
{
glyphname = eng;
layers = (
{
layerId = master01;
shapes = (
{
closed = 1;
nodes = (
(90,520,l),
(90,0,l),
(172,0,l),
(172,379,ls),
(172,429,o),
(188,466,o),
(267,466,cs,{
name = hr01;
}),
(351,466,o),
(355,433,o),
(355,377,cs),
(355,-54,ls),
(355,-105,o),
(349,-130,o),
(314,-130,cs),
(296,-130,o),
(283,-127,o),
(265,-122,c),
(247,-180,l),
(267,-189,o),
(291,-194,o),
(316,-194,cs),
(433,-194,o),
(437,-113,o),
(437,-33,cs),
(437,366,ls),
(437,451,o),
(421,531,o),
(302,531,cs,{
name = hr02;
}),
(256,531,o),
(190,530,o),
(148,471,c),
(135,520,l)
);
}
);
width = 517;
}
);
unicode = 331;
},
{
glyphname = o;
layers = (
{
layerId = master01;
shapes = (
{
closed = 1;
nodes = (
(438,-12,o),
(438,93,o),
(438,260,cs),
(438,427,o),
(438,531,o),
(256,531,cs),
(75,531,o),
(75,427,o),
(75,260,cs),
(75,93,o),
(75,-12,o),
(256,-12,c,{
name = hr00;
})
);
},
{
closed = 1;
nodes = (
(353,93,o),
(353,53,o),
(256,53,cs),
(158,53,o),
(158,93,o),
(158,145,cs),
(158,374,ls),
(158,426,o),
(158,466,o),
(256,466,cs),
(353,466,o),
(353,426,o),
(353,374,cs),
(353,145,l)
);
}
);
width = 513;
}
);
unicode = 111;
},
{
glyphname = oe;
layers = (
{
layerId = master01;
shapes = (
{
closed = 1;
nodes = (
(465,531,o),
(422,515,o),
(396,486,c),
(370,515,o),
(327,531,o),
(256,531,cs),
(75,531,o),
(75,427,o),
(75,260,cs),
(75,93,o),
(75,-12,o),
(256,-12,cs),
(326,-12,o),
(369,3,o),
(395,32,c),
(420,3,o),
(460,-12,o),
(526,-12,cs),
(593,-12,o),
(641,2,o),
(692,32,c),
(676,82,l),
(629,62,o),
(575,54,o),
(527,54,cs),
(474,54,o),
(438,68,o),
(438,143,cs),
(438,218,l),
(606,220,o),
(703,223,o),
(703,375,cs),
(703,464,o),
(686,531,o),
(534,531,c,{
name = hr00;
})
);
},
{
closed = 1;
nodes = (
(353,93,o),
(353,53,o),
(256,53,cs),
(158,53,o),
(158,93,o),
(158,145,cs),
(158,374,ls),
(158,426,o),
(158,466,o),
(256,466,cs),
(353,466,o),
(353,426,o),
(353,374,cs),
(353,145,l)
);
},
{
closed = 1;
nodes = (
(438,428,o),
(454,465,o),
(533,465,cs),
(617,465,o),
(621,432,o),
(621,376,cs),
(621,353,ls),
(621,275,o),
(533,275,o),
(438,275,c),
(438,378,l)
);
}
);
width = 758;
}
);
unicode = 339;
},
{
glyphname = p;
layers = (
{
layerId = master01;
shapes = (
{
closed = 1;
nodes = (
(172,429,o),
(188,466,o),
(267,466,cs),
(351,466,o),
(355,433,o),
(355,377,cs),
(355,158,ls),
(355,86,o),
(344,64,o),
(265,64,cs),
(233,64,o),
(202,69,o),
(172,75,c),
(172,379,l)
);
},
{
closed = 1;
nodes = (
(439,460,o),
(421,531,o),
(302,531,cs),
(256,531,o),
(190,530,o),
(148,471,c),
(135,520,l,{
name = hr01;
}),
(90,520,l),
(90,-182,l),
(167,-182,l),
(167,13,l),
(194,5,o),
(230,0,o),
(267,0,cs),
(436,0,o),
(439,95,o),
(439,295,c)
);
}
);
width = 514;
}
);
unicode = 112;
},
{
glyphname = thorn;
layers = (
{
layerId = master01;
shapes = (
{
closed = 1;
nodes = (
(90,720,l),
(90,17,o),
(90,16,o),
(91,-181,c),
(166,-181,l),
(166,-1,l),
(208,-9,o),
(243,-12,o),
(267,-12,cs),
(436,-12,o),
(439,84,o),
(439,284,cs),
(439,449,o),
(421,520,o),
(302,520,cs),
(262,520,o),
(208,519,o),
(167,481,c),
(167,720,l,{
name = hr00;
})
);
},
{
closed = 1;
nodes = (
(172,419,o),
(188,456,o),
(267,456,cs),
(351,456,o),
(355,423,o),
(355,367,cs),
(355,147,ls),
(355,75,o),
(344,53,o),
(265,53,cs),
(233,53,o),
(202,58,o),
(172,64,c),
(172,369,l)
);
}
);
width = 514;
}
);
unicode = 254;
},
{
glyphname = q;
layers = (
{
layerId = master01;
shapes = (
{
closed = 1;
nodes = (
(342,101,o),
(326,64,o),
(247,64,cs),
(163,64,o),
(159,97,o),
(159,153,cs),
(159,372,ls),
(159,444,o),
(170,466,o),
(249,466,cs),
(281,466,o),
(312,461,o),
(342,455,c),
(342,151,l,{
name = hr00;
})
);
},
{
closed = 1;
nodes = (
(424,502,l),
(349,524,o),
(284,531,o),
(247,531,cs),
(78,531,o),
(75,436,o),
(75,236,cs),
(75,71,o),
(93,0,o),
(212,0,cs),
(252,0,o),
(306,1,o),
(347,39,c),
(347,-182,l),
(424,-182,l)
);
}
);
width = 514;
}
);
unicode = 113;
},
{
glyphname = r;
layers = (
{
layerId = master01;
shapes = (
{
closed = 1;
nodes = (
(172,405,l),
(196,429,o),
(238,459,o),
(317,459,c),
(325,531,l),
(233,530,o),
(184,491,o),
(151,459,c),
(135,520,l,{
name = hr01;
}),
(90,520,l),
(90,0,l),
(172,0,l)
);
}
);
width = 323;
}
);
unicode = 114;
},
{
glyphname = s;
layers = (
{
layerId = master01;
shapes = (
{
closed = 1;
nodes = (
(147,309,o),
(145,334,o),
(145,383,cs),
(145,453,o),
(180,461,o),
(229,461,cs),
(273,461,o),
(322,450,o),
(356,442,c),
(371,498,l),
(333,518,o),
(279,531,o),
(216,531,cs),
(125,531,o),
(65,475,o),
(65,368,cs),
(65,300,o),
(81,240,o),
(166,228,cs),
(247,217,ls),
(300,209,o),
(306,175,o),
(306,141,cs),
(306,76,o),
(280,54,o),
(215,54,cs),
(167,54,o),
(113,64,o),
(76,71,c),
(60,21,l),
(101,1,o),
(158,-12,o),
(225,-12,cs),
(343,-12,o),
(386,56,o),
(386,141,cs),
(386,247,o),
(349,281,o),
(281,290,cs),
(200,301,l,{
name = hr00;
})
);
}
);
width = 446;
}
);
unicode = 115;
},
{
glyphname = germandbls;
layers = (
{
layerId = master01;
shapes = (
{
closed = 1;
nodes = (
(257,0,o),
(297,-12,o),
(340,-12,cs),
(476,-12,o),
(530,40,o),
(530,186,cs),
(530,299,o),
(489,347,o),
(414,370,c),
(414,376,l),
(469,400,o),
(502,433,o),
(502,520,cs,{
name = hr01;
}),
(502,617,o),
(502,729,o),
(310,729,cs),
(143,729,o),
(122,650,o),
(119,519,c),
(50,505,l),
(50,461,l),
(119,461,l),
(119,0,l),
(201,0,l),
(201,566,ls),
(201,618,o),
(201,658,o),
(309,658,cs),
(416,658,o),
(416,618,o),
(416,566,cs),
(416,454,o),
(416,410,o),
(331,410,cs),
(251,410,l),
(251,352,l),
(353,342,ls),
(443,333,o),
(443,243,o),
(443,183,cs,{
name = hr02;
}),
(443,86,o),
(442,53,o),
(346,53,cs),
(307,53,o),
(282,57,o),
(251,68,c),
(232,13,l)
);
}
);
width = 592;
}
);
unicode = 223;
},
{
glyphname = t;
layers = (
{
layerId = master01;
shapes = (
{
closed = 1;
nodes = (
(121,520,l),
(50,505,l),
(50,461,l),
(121,461,l),
(121,125,ls),
(121,43,o),
(124,-12,o),
(227,-12,cs),
(255,-12,o),
(277,-7,o),
(298,0,c),
(291,50,l),
(276,47,o),
(264,46,o),
(254,46,cs),
(206,46,o),
(203,75,o),
(203,125,cs),
(203,461,l),
(295,461,l),
(295,520,l),
(203,520,l),
(203,610,l),
(166,610,l,{
name = hr00;
})
);
}
);
width = 338;
}
);
unicode = 116;
},
{
glyphname = u;
layers = (
{
layerId = master01;
shapes = (
{
closed = 1;
nodes = (
(80,153,ls),
(80,68,o),
(96,-12,o),
(215,-12,cs),
(261,-12,o),
(327,-10,o),
(369,49,c),
(382,0,l,{
name = hr01;
}),
(427,0,l),
(427,520,l),
(345,520,l),
(345,140,ls),
(345,90,o),
(329,53,o),
(250,53,cs,{
name = hr02;
}),
(166,53,o),
(162,86,o),
(162,142,cs),
(162,520,l),
(80,520,l)
);
}
);
width = 517;
}
);
unicode = 117;
},
{
glyphname = v;
layers = (
{
layerId = master01;
shapes = (
{
closed = 1;
nodes = (
(293,0,l),
(414,520,l),
(333,520,l),
(230,54,l),
(224,54,l),
(121,520,l),
(40,520,l),
(161,0,l,{
name = hr00;
})
);
}
);
width = 454;
}
);
unicode = 118;
},
{
glyphname = w;
layers = (
{
layerId = master01;
shapes = (
{
closed = 1;
nodes = (
(558,0,l),
(657,520,l),
(576,520,l),
(493,54,l),
(487,54,l),
(400,520,l),
(297,520,l),
(210,54,l),
(204,54,l),
(121,520,l),
(40,520,l),
(139,0,l),
(263,0,l),
(345,444,l),
(351,444,l),
(434,0,l,{
name = hr00;
})
);
}
);
width = 697;
}
);
unicode = 119;
},
{
glyphname = x;
layers = (
{
layerId = master01;
shapes = (
{
closed = 1;
nodes = (
(228,343,l),
(135,520,l),
(48,520,l),
(182,266,l),
(40,0,l),
(127,0,l),
(228,190,l),
(330,0,l),
(417,0,l),
(275,266,l),
(409,520,l),
(322,520,l,{
name = hr00;
})
);
}
);
width = 457;
}
);
unicode = 120;
},
{
glyphname = y;
layers = (
{
layerId = master01;
shapes = (
{
closed = 1;
nodes = (
(59,-189,o),
(83,-194,o),
(108,-194,cs),
(227,-194,o),
(262,-131,o),
(282,-45,cs),
(414,520,l),
(333,520,l),
(230,54,l),
(224,54,l),
(121,520,l),
(40,520,l),
(161,0,l),
(217,0,l),
(206,-48,ls),
(190,-113,o),
(155,-128,o),
(112,-128,cs),
(94,-128,o),
(75,-126,o),
(57,-122,c),
(39,-180,l,{
name = hr00;
})
);
}
);
width = 454;
}
);
unicode = 121;
},
{
glyphname = z;
layers = (
{
layerId = master01;
shapes = (
{
closed = 1;
nodes = (
(70,455,l),
(296,455,l),
(60,54,l),
(60,0,l),
(393,0,l),
(393,65,l),
(154,65,l),
(388,466,l),
(388,520,l),
(70,520,l,{
name = hr00;
})
);
}
);
width = 453;
}
);
unicode = 122;
},
{
glyphname = fi;
layers = (
{
layerId = master01;
shapes = (
{
closed = 1;
nodes = (
(301,726,o),
(277,729,o),
(256,729,cs),
(139,729,o),
(122,647,o),
(119,519,c),
(50,505,l),
(50,461,l),
(119,461,l),
(119,0,l),
(201,0,l),
(201,461,l),
(295,461,l),
(295,520,l),
(201,520,l),
(201,554,ls),
(201,645,o),
(226,672,o),
(283,672,cs),
(295,672,o),
(308,671,o),
(323,669,c),
(329,721,l,{
name = hr00;
})
);
},
{
closed = 1;
nodes = (
(411,520,l),
(411,0,l),
(493,0,l),
(493,520,l)
);
},
{
closed = 1;
nodes = (
(420,717,o),
(400,717,o),
(400,667,cs),
(400,616,o),
(420,616,o),
(452,616,cs),
(484,616,o),
(504,616,o),
(504,667,cs),
(504,717,o),
(484,717,o),
(452,717,c)
);
}
);
width = 583;
}
);
unicode = 64257;
},
{
glyphname = fl;
layers = (
{
layerId = master01;
shapes = (
{
closed = 1;
nodes = (
(301,726,o),
(277,729,o),
(256,729,cs),
(139,729,o),
(122,647,o),
(119,519,c),
(50,505,l),
(50,461,l),
(119,461,l),
(119,0,l),
(201,0,l),
(201,461,l),
(295,461,l),
(295,520,l),
(201,520,l),
(201,554,ls),
(201,645,o),
(226,672,o),
(283,672,cs),
(295,672,o),
(308,671,o),
(323,669,c),
(329,721,l,{
name = hr00;
})
);
},
{
closed = 1;
nodes = (
(493,0,l),
(493,720,l),
(411,720,l),
(411,0,l)
);
}
);
width = 583;
}
);
unicode = 64258;
},
{
glyphname = ordfeminine;
layers = (
{
layerId = master01;
shapes = (
{
closed = 1;
nodes = (
(313,363,l),
(313,607,ls),
(313,671,o),
(300,712,o),
(204,712,cs),
(162,712,o),
(122,699,o),
(92,684,c),
(105,646,l),
(132,654,o),
(169,662,o),
(198,662,cs),
(227,662,o),
(253,653,o),
(253,612,cs),
(253,567,l),
(145,566,o),
(79,563,o),
(79,466,cs),
(79,409,o),
(91,355,o),
(172,355,cs),
(200,355,o),
(239,362,o),
(266,397,c),
(282,363,l,{
name = hr00;
})
);
},
{
closed = 1;
nodes = (
(253,430,o),
(238,405,o),
(194,405,cs),
(147,405,o),
(140,428,o),
(140,459,cs),
(140,479,ls),
(140,520,o),
(199,522,o),
(253,522,c),
(253,458,l)
);
}
);
width = 403;
}
);
unicode = 170;
},
{
glyphname = ordmasculine;
layers = (
{
layerId = master01;
shapes = (
{
closed = 1;
nodes = (
(327,355,o),
(327,424,o),
(327,534,cs),
(327,644,o),
(327,713,o),
(204,713,cs),
(83,713,o),
(83,644,o),
(83,534,cs),
(83,424,o),
(83,355,o),
(204,355,c,{
name = hr00;
})
);
},
{
closed = 1;
nodes = (
(263,427,o),
(258,405,o),
(204,405,cs),
(149,405,o),
(144,427,o),
(144,456,cs),
(144,611,ls),
(144,641,o),
(149,663,o),
(204,663,cs),
(258,663,o),
(263,641,o),
(263,611,cs),
(263,456,l)
);
}
);
width = 413;
}
);
unicode = 186;
},
{
glyphname = pi;
layers = (
{
layerId = master01;
shapes = (
{
closed = 1;
nodes = (
(40,450,l),
(100,450,l),
(100,0,l),
(182,0,l),
(182,450,l),
(370,450,l),
(370,125,ls),
(370,43,o),
(373,-12,o),
(476,-12,cs,{
name = hr01;
}),
(504,-12,o),
(526,-7,o),
(547,0,c,{
name = hr02;
}),
(540,50,l),
(525,47,o),
(513,46,o),
(503,46,cs,{
name = hr03;
}),
(455,46,o),
(452,75,o),
(452,125,cs),
(452,450,l),
(512,450,l),
(512,520,l),
(40,520,l)
);
}
);
width = 552;
}
);
unicode = 960;
},
{
glyphname = zero;
layers = (
{
layerId = master01;
shapes = (
{
closed = 1;
nodes = (
(453,529,o),
(453,658,o),
(250,658,cs),
(47,658,o),
(47,529,o),
(47,323,cs),
(47,117,o),
(47,-12,o),
(250,-12,cs),
(453,-12,o),
(453,117,o),
(453,323,c,{
name = hr00;
})
);
},
{
closed = 1;
nodes = (
(365,110,o),
(365,59,o),
(252,59,cs),
(135,59,o),
(135,110,o),
(135,166,cs),
(135,480,ls),
(135,536,o),
(135,587,o),
(248,587,cs),
(365,587,o),
(365,536,o),
(365,480,cs),
(365,166,l)
);
}
);
width = 500;
}
);
unicode = 48;
},
{
glyphname = one;
layers = (
{
layerId = master01;
shapes = (
{
closed = 1;
nodes = (
(308,658,l),
(84,570,l),
(109,506,l),
(239,556,l),
(239,70,l),
(123,70,l),
(123,0,l),
(435,0,l),
(435,70,l),
(325,70,l),
(325,658,l,{
name = hr00;
})
);
}
);
width = 500;
}
);
unicode = 49;
},
{
glyphname = two;
layers = (
{
layerId = master01;
shapes = (
{
closed = 1;
nodes = (
(436,600,o),
(362,658,o),
(244,658,cs),
(170,658,o),
(113,642,o),
(69,625,c),
(88,561,l),
(134,575,o),
(188,587,o),
(244,587,cs),
(315,587,o),
(348,563,o),
(348,489,cs),
(348,425,o),
(330,388,o),
(289,341,cs),
(60,76,l),
(60,0,l),
(436,0,l),
(436,70,l),
(157,70,l),
(355,299,ls),
(396,346,o),
(436,407,o),
(436,489,c,{
name = hr00;
})
);
}
);
width = 500;
}
);
unicode = 50;
},
{
glyphname = three;
layers = (
{
layerId = master01;
shapes = (
{
closed = 1;
nodes = (
(158,658,o),
(88,637,o),
(59,625,c),
(78,561,l),
(131,577,o),
(182,587,o),
(224,587,cs),
(321,587,o),
(328,539,o),
(328,489,cs),
(328,442,o),
(328,371,o),
(251,365,cs),
(141,356,l),
(141,294,l),
(264,285,ls),
(347,279,o),
(348,208,o),
(348,161,cs,{
name = hr01;
}),
(348,111,o),
(348,63,o),
(227,63,cs),
(169,63,o),
(134,71,o),
(82,83,c),
(58,21,l),
(86,9,o),
(147,-10,o),
(227,-10,cs),
(395,-10,o),
(437,82,o),
(437,181,cs),
(437,266,o),
(404,310,o),
(329,334,c),
(329,339,l),
(384,364,o),
(416,411,o),
(416,489,cs,{
name = hr02;
}),
(416,578,o),
(373,658,o),
(227,658,c)
);
}
);
width = 500;
}
);
unicode = 51;
},
{
glyphname = four;
layers = (
{
layerId = master01;
shapes = (
{
closed = 1;
nodes = (
(341,440,l),
(316,354,l),
(316,228,l),
(112,228,l),
(253,650,l),
(173,650,l),
(30,221,l),
(30,158,l),
(316,158,l),
(316,0,l),
(396,0,l),
(396,158,l),
(469,158,l),
(469,228,l),
(396,228,l),
(396,440,l,{
name = hr00;
})
);
}
);
width = 500;
}
);
unicode = 52;
},
{
glyphname = five;
layers = (
{
layerId = master01;
shapes = (
{
closed = 1;
nodes = (
(166,580,l),
(405,580,l),
(405,650,l),
(86,650,l),
(86,340,l),
(124,302,l),
(265,291,ls),
(350,284,o),
(350,219,o),
(350,168,cs),
(350,117,o),
(350,63,o),
(235,63,cs),
(170,63,o),
(136,71,o),
(84,83,c),
(60,21,l),
(89,9,o),
(152,-10,o),
(235,-10,cs),
(414,-10,o),
(439,91,o),
(439,188,cs),
(439,269,o),
(415,349,o),
(270,361,cs),
(166,369,l,{
name = hr00;
})
);
}
);
width = 500;
}
);
unicode = 53;
},
{
glyphname = six;
layers = (
{
layerId = master01;
shapes = (
{
closed = 1;
nodes = (
(377,642,o),
(320,658,o),
(253,658,cs),
(97,658,o),
(53,595,o),
(53,368,cs),
(53,111,o),
(53,-12,o),
(253,-12,cs),
(422,-12,o),
(446,90,o),
(446,192,cs),
(446,296,o),
(427,384,o),
(259,384,cs),
(208,384,o),
(170,375,o),
(142,361,c),
(142,499,ls),
(142,560,o),
(175,587,o),
(246,587,cs),
(302,587,o),
(356,575,o),
(402,561,c),
(421,625,l,{
name = hr00;
})
);
},
{
closed = 1;
nodes = (
(358,110,o),
(358,59,o),
(252,59,cs),
(146,59,o),
(142,110,o),
(142,130,cs),
(142,302,l),
(176,311,o),
(215,316,o),
(252,316,cs),
(358,316,o),
(358,256,o),
(358,237,cs),
(358,130,l)
);
}
);
width = 500;
}
);
unicode = 54;
},
{
glyphname = seven;
layers = (
{
layerId = master01;
shapes = (
{
closed = 1;
nodes = (
(68,580,l),
(330,580,l),
(330,473,o),
(322,397,o),
(270,294,cs),
(120,0,l),
(208,0,l),
(352,287,ls),
(406,395,o),
(410,472,o),
(410,580,cs),
(410,650,l),
(68,650,l,{
name = hr00;
})
);
}
);
width = 500;
}
);
unicode = 55;
},
{
glyphname = eight;
layers = (
{
layerId = master01;
shapes = (
{
closed = 1;
nodes = (
(51,66,o),
(86,-12,o),
(252,-12,cs),
(439,-12,o),
(448,85,o),
(448,165,cs),
(448,220,o),
(448,290,o),
(393,325,c),
(447,355,o),
(448,450,o),
(448,501,cs),
(448,591,o),
(401,658,o),
(252,658,cs),
(77,658,o),
(51,571,o),
(51,481,cs),
(51,410,o),
(51,347,o),
(110,312,c),
(51,286,o),
(51,218,o),
(51,165,c,{
name = hr00;
})
);
},
{
closed = 1;
nodes = (
(139,536,o),
(144,587,o),
(252,587,cs),
(360,587,o),
(360,536,o),
(360,523,cs),
(360,337,l),
(209,365,ls),
(157,375,o),
(139,394,o),
(139,423,cs),
(139,523,l)
);
},
{
closed = 1;
nodes = (
(360,110,o),
(360,59,o),
(252,59,cs),
(144,59,o),
(139,110,o),
(139,123,cs),
(139,305,l),
(290,277,ls),
(342,267,o),
(360,248,o),
(360,219,cs),
(360,123,l)
);
}
);
width = 500;
}
);
unicode = 56;
},
{
glyphname = nine;
layers = (
{
layerId = master01;
shapes = (
{
closed = 1;
nodes = (
(103,7,o),
(178,-12,o),
(252,-12,cs),
(449,-12,o),
(454,112,o),
(454,324,cs),
(454,546,o),
(443,658,o),
(259,658,cs),
(84,658,o),
(61,557,o),
(61,452,cs),
(61,326,o),
(82,252,o),
(257,252,cs),
(309,252,o),
(340,264,o),
(365,274,c),
(365,144,ls),
(365,80,o),
(315,60,o),
(249,60,cs),
(201,60,o),
(146,71,o),
(95,83,c),
(76,19,l,{
name = hr00;
})
);
},
{
closed = 1;
nodes = (
(149,535,o),
(149,587,o),
(247,587,cs),
(365,587,o),
(365,535,o),
(365,505,cs),
(365,334,l),
(330,326,o),
(295,320,o),
(257,320,cs),
(149,320,o),
(149,378,o),
(149,397,cs),
(149,505,l)
);
}
);
width = 500;
}
);
unicode = 57;
},
{
glyphname = fraction;
layers = (
{
layerId = master01;
shapes = (
{
closed = 1;
nodes = (
(90,0,l),
(265,646,l),
(220,646,l),
(45,0,l,{
name = hr00;
})
);
}
);
width = 310;
}
);
unicode = 8260;
},
{
glyphname = onehalf;
layers = (
{
layerId = master01;
shapes = (
{
closed = 1;
nodes = (
(272,0,l),
(447,646,l),
(402,646,l),
(227,0,l,{
name = hr00;
})
);
},
{
closed = 1;
nodes = (
(189,655,l),
(61,607,l),
(80,558,l),
(146,583,l),
(146,301,l),
(209,301,l),
(209,655,l)
);
},
{
closed = 1;
nodes = (
(657,321,o),
(614,354,o),
(546,354,cs),
(508,354,o),
(471,341,o),
(443,329,c),
(457,286,l),
(486,295,o),
(517,302,o),
(546,302,cs),
(579,302,o),
(594,291,o),
(594,259,cs),
(594,228,o),
(585,211,o),
(564,188,cs),
(440,49,l),
(440,0,l),
(657,0,l),
(657,51,l),
(516,51,l),
(611,156,ls),
(633,181,o),
(657,216,o),
(657,259,c)
);
}
);
width = 726;
}
);
unicode = 189;
},
{
glyphname = onequarter;
layers = (
{
layerId = master01;
shapes = (
{
closed = 1;
nodes = (
(272,0,l),
(447,646,l),
(402,646,l),
(227,0,l,{
name = hr00;
})
);
},
{
closed = 1;
nodes = (
(189,655,l),
(61,607,l),
(80,558,l),
(146,583,l),
(146,301,l),
(209,301,l),
(209,655,l)
);
},
{
closed = 1;
nodes = (
(583,242,l),
(567,192,l),
(567,133,l),
(478,133,l),
(553,349,l),
(492,349,l),
(414,124,l),
(414,81,l),
(567,81,l),
(567,0,l),
(625,0,l),
(625,81,l),
(664,81,l),
(664,133,l),
(625,133,l),
(625,242,l)
);
}
);
width = 726;
}
);
unicode = 188;
},
{
glyphname = threequarters;
layers = (
{
layerId = master01;
shapes = (
{
closed = 1;
nodes = (
(294,0,l),
(469,646,l),
(424,646,l),
(249,0,l,{
name = hr00;
})
);
},
{
closed = 1;
nodes = (
(110,655,o),
(69,639,o),
(49,630,c),
(63,587,l),
(96,597,o),
(125,603,o),
(146,603,cs),
(191,603,o),
(194,572,o),
(194,550,cs),
(194,530,o),
(192,503,o),
(160,501,cs),
(95,497,l),
(95,455,l),
(168,450,ls),
(204,448,o),
(205,423,o),
(205,401,cs),
(205,380,o),
(205,349,o),
(148,349,cs),
(123,349,o),
(106,352,o),
(65,359,c),
(51,316,l),
(70,308,o),
(105,296,o),
(148,296,cs),
(243,296,o),
(268,347,o),
(268,402,cs),
(268,443,o),
(253,467,o),
(221,482,c),
(243,499,o),
(257,524,o),
(257,560,cs),
(257,610,o),
(232,655,o),
(148,655,c)
);
},
{
closed = 1;
nodes = (
(583,242,l),
(567,192,l),
(567,133,l),
(478,133,l),
(553,349,l),
(492,349,l),
(414,124,l),
(414,81,l),
(567,81,l),
(567,0,l),
(625,0,l),
(625,81,l),
(664,81,l),
(664,133,l),
(625,133,l),
(625,242,l)
);
}
);
width = 726;
}
);
unicode = 190;
},
{
glyphname = zeroinferior;
layers = (
{
layerId = master01;
shapes = (
{
closed = 1;
nodes = (
(281,284,o),
(281,354,o),
(165,354,cs),
(50,354,o),
(50,284,o),
(50,174,cs),
(50,63,o),
(50,-6,o),
(165,-6,cs),
(281,-6,o),
(281,63,o),
(281,174,c,{
name = hr00;
})
);
},
{
closed = 1;
nodes = (
(219,68,o),
(219,46,o),
(167,46,cs),
(112,46,o),
(112,68,o),
(112,93,cs),
(112,254,ls),
(112,279,o),
(112,302,o),
(164,302,cs),
(219,302,o),
(219,279,o),
(219,254,cs),
(219,93,l)
);
}
);
width = 335;
}
);
unicode = 8320;
},
{
glyphname = oneinferior;
layers = (
{
layerId = master01;
shapes = (
{
closed = 1;
nodes = (
(194,354,l),
(66,306,l),
(85,257,l),
(151,282,l),
(151,0,l),
(214,0,l),
(214,354,l,{
name = hr00;
})
);
}
);
width = 335;
}
);
unicode = 8321;
},
{
glyphname = twoinferior;
layers = (
{
layerId = master01;
shapes = (
{
closed = 1;
nodes = (
(273,321,o),
(230,354,o),
(162,354,cs),
(124,354,o),
(87,341,o),
(59,329,c),
(73,286,l),
(102,295,o),
(133,302,o),
(162,302,cs),
(195,302,o),
(210,291,o),
(210,259,cs),
(210,228,o),
(201,211,o),
(180,188,cs),
(56,49,l),
(56,0,l),
(273,0,l),
(273,51,l),
(132,51,l),
(227,156,ls),
(249,181,o),
(273,216,o),
(273,259,c,{
name = hr00;
})
);
}
);
width = 335;
}
);
unicode = 8322;
},
{
glyphname = threeinferior;
layers = (
{
layerId = master01;
shapes = (
{
closed = 1;
nodes = (
(115,354,o),
(74,338,o),
(54,329,c),
(68,286,l),
(101,296,o),
(130,302,o),
(151,302,cs),
(196,302,o),
(199,271,o),
(199,249,cs),
(199,229,o),
(197,202,o),
(165,200,cs),
(100,196,l),
(100,154,l),
(173,149,ls),
(209,147,o),
(210,122,o),
(210,100,cs),
(210,79,o),
(210,48,o),
(153,48,cs),
(128,48,o),
(111,51,o),
(70,58,c),
(56,15,l),
(75,7,o),
(110,-5,o),
(153,-5,cs),
(248,-5,o),
(273,46,o),
(273,101,cs),
(273,142,o),
(258,166,o),
(226,181,c),
(248,198,o),
(262,223,o),
(262,259,cs),
(262,309,o),
(237,354,o),
(153,354,c,{
name = hr00;
})
);
}
);
width = 335;
}
);
unicode = 8323;
},
{
glyphname = fourinferior;
layers = (
{
layerId = master01;
shapes = (
{
closed = 1;
nodes = (
(209,242,l),
(193,192,l),
(193,133,l),
(104,133,l),
(179,349,l),
(118,349,l),
(40,124,l),
(40,81,l),
(193,81,l),
(193,0,l),
(251,0,l),
(251,81,l),
(290,81,l),
(290,133,l),
(251,133,l),
(251,242,l,{
name = hr00;
})
);
}
);
width = 335;
}
);
unicode = 8324;
},
{
glyphname = fiveinferior;
layers = (
{
layerId = master01;
shapes = (
{
closed = 1;
nodes = (
(128,298,l),
(256,298,l),
(256,349,l),
(70,349,l),
(70,179,l),
(87,158,l),
(173,149,ls),
(211,145,o),
(211,121,o),
(211,98,cs),
(211,76,o),
(211,48,o),
(157,48,cs),
(129,48,o),
(93,53,o),
(67,58,c),
(53,15,l),
(73,8,o),
(113,-5,o),
(157,-5,cs),
(260,-5,o),
(274,50,o),
(274,105,cs),
(274,150,o),
(260,192,o),
(176,201,cs),
(128,206,l,{
name = hr00;
})
);
}
);
width = 335;
}
);
unicode = 8325;
},
{
glyphname = sixinferior;
layers = (
{
layerId = master01;
shapes = (
{
closed = 1;
nodes = (
(239,343,o),
(205,354,o),
(167,354,cs),
(78,354,o),
(52,319,o),
(52,197,cs),
(52,60,o),
(52,-6,o),
(167,-6,cs),
(264,-6,o),
(277,50,o),
(277,107,cs),
(277,164,o),
(267,213,o),
(170,213,cs),
(147,213,o),
(130,211,o),
(115,206,c),
(115,264,ls),
(115,290,o),
(130,302,o),
(163,302,cs),
(192,302,o),
(231,296,o),
(253,291,c),
(267,334,l,{
name = hr00;
})
);
},
{
closed = 1;
nodes = (
(215,66,o),
(215,46,o),
(167,46,cs),
(117,46,o),
(115,66,o),
(115,75,cs),
(115,157,l),
(133,161,o),
(149,162,o),
(167,162,cs),
(215,162,o),
(215,138,o),
(215,130,cs),
(215,75,l)
);
}
);
width = 335;
}
);
unicode = 8326;
},
{
glyphname = seveninferior;
layers = (
{
layerId = master01;
shapes = (
{
closed = 1;
nodes = (
(60,298,l),
(201,298,l),
(200,247,o),
(193,208,o),
(169,163,cs),
(83,0,l),
(147,0,l),
(227,151,ls),
(257,208,o),
(259,252,o),
(259,313,cs),
(259,349,l),
(60,349,l,{
name = hr00;
})
);
}
);
width = 335;
}
);
unicode = 8327;
},
{
glyphname = eightinferior;
layers = (
{
layerId = master01;
shapes = (
{
closed = 1;
nodes = (
(51,38,o),
(71,-6,o),
(167,-6,cs),
(274,-6,o),
(278,48,o),
(278,92,cs),
(278,120,o),
(278,154,o),
(255,175,c),
(277,197,o),
(278,241,o),
(278,266,cs),
(278,316,o),
(252,354,o),
(167,354,cs),
(66,354,o),
(51,306,o),
(51,255,cs),
(51,220,o),
(53,189,o),
(77,169,c),
(51,151,o),
(51,119,o),
(51,92,c,{
name = hr00;
})
);
},
{
closed = 1;
nodes = (
(114,281,o),
(116,302,o),
(167,302,cs),
(216,302,o),
(216,281,o),
(216,276,cs),
(216,190,l),
(146,203,ls),
(124,207,o),
(114,215,o),
(114,225,cs),
(114,276,l)
);
},
{
closed = 1;
nodes = (
(216,66,o),
(216,46,o),
(167,46,cs),
(116,46,o),
(114,66,o),
(114,71,cs),
(114,155,l),
(185,143,ls),
(209,139,o),
(216,131,o),
(216,120,cs),
(216,71,l)
);
}
);
width = 335;
}
);
unicode = 8328;
},
{
glyphname = nineinferior;
layers = (
{
layerId = master01;
shapes = (
{
closed = 1;
nodes = (
(82,6,o),
(127,-6,o),
(167,-6,cs),
(280,-6,o),
(282,60,o),
(282,175,cs),
(282,293,o),
(277,354,o),
(170,354,cs),
(70,354,o),
(57,298,o),
(57,241,cs),
(57,171,o),
(69,130,o),
(169,130,cs),
(191,130,o),
(208,133,o),
(219,137,c),
(219,81,ls),
(219,54,o),
(195,47,o),
(165,47,cs),
(142,47,o),
(104,51,o),
(77,57,c),
(63,14,l,{
name = hr00;
})
);
},
{
closed = 1;
nodes = (
(119,280,o),
(119,302,o),
(164,302,cs),
(219,302,o),
(219,280,o),
(219,268,cs),
(219,186,l),
(203,183,o),
(185,180,o),
(169,180,cs),
(119,180,o),
(119,204,o),
(119,211,cs),
(119,268,l)
);
}
);
width = 335;
}
);
unicode = 8329;
},
{
glyphname = onesuperior;
layers = (
{
layerId = master01;
shapes = (
{
closed = 1;
nodes = (
(194,719,l),
(66,671,l),
(85,622,l),
(151,647,l),
(151,365,l),
(214,365,l),
(214,719,l,{
name = hr00;
})
);
}
);
width = 335;
}
);
unicode = 185;
},
{
glyphname = twosuperior;
layers = (
{
layerId = master01;
shapes = (
{
closed = 1;
nodes = (
(273,686,o),
(230,719,o),
(162,719,cs),
(124,719,o),
(87,706,o),
(59,694,c),
(73,651,l),
(102,660,o),
(133,667,o),
(162,667,cs),
(195,667,o),
(210,656,o),
(210,624,cs),
(210,593,o),
(201,576,o),
(180,553,cs),
(56,414,l),
(56,365,l),
(273,365,l),
(273,416,l),
(132,416,l),
(227,521,ls),
(249,546,o),
(273,581,o),
(273,624,c,{
name = hr00;
})
);
}
);
width = 335;
}
);
unicode = 178;
},
{
glyphname = threesuperior;
layers = (
{
layerId = master01;
shapes = (
{
closed = 1;
nodes = (
(115,719,o),
(74,703,o),
(54,694,c),
(68,651,l),
(101,661,o),
(130,667,o),
(151,667,cs),
(196,667,o),
(199,636,o),
(199,614,cs),
(199,594,o),
(197,567,o),
(165,565,cs),
(100,561,l),
(100,519,l),
(173,514,ls),
(209,512,o),
(210,487,o),
(210,465,cs),
(210,444,o),
(210,413,o),
(153,413,cs),
(128,413,o),
(111,416,o),
(70,423,c),
(56,380,l),
(75,372,o),
(110,360,o),
(153,360,cs),
(248,360,o),
(273,411,o),
(273,466,cs),
(273,507,o),
(258,531,o),
(226,546,c),
(248,563,o),
(262,588,o),
(262,624,cs),
(262,674,o),
(237,719,o),
(153,719,c,{
name = hr00;
})
);
}
);
width = 335;
}
);
unicode = 179;
},
{
glyphname = period;
layers = (
{
layerId = master01;
shapes = (
{
closed = 1;
nodes = (
(86,99,o),
(64,99,o),
(64,44,cs),
(64,-12,o),
(86,-12,o),
(121,-12,cs),
(156,-12,o),
(178,-12,o),
(178,44,cs),
(178,99,o),
(156,99,o),
(121,99,c,{
name = hr00;
})
);
}
);
width = 240;
}
);
unicode = 46;
},
{
glyphname = comma;
layers = (
{
layerId = master01;
shapes = (
{
closed = 1;
nodes = (
(86,99,o),
(64,99,o),
(64,44,cs),
(64,9,o),
(72,-4,o),
(87,-9,c),
(46,-112,l),
(91,-136,l),
(145,-51,ls),
(158,-30,o),
(168,-10,o),
(174,11,cs),
(176,19,o),
(178,30,o),
(178,44,cs),
(178,99,o),
(156,99,o),
(121,99,c,{
name = hr00;
})
);
}
);
width = 240;
}
);
unicode = 44;
},
{
glyphname = colon;
layers = (
{
layerId = master01;
shapes = (
{
closed = 1;
nodes = (
(86,99,o),
(64,99,o),
(64,44,cs),
(64,-12,o),
(86,-12,o),
(121,-12,cs),
(156,-12,o),
(178,-12,o),
(178,44,cs),
(178,99,o),
(156,99,o),
(121,99,c,{
name = hr00;
})
);
},
{
closed = 1;
nodes = (
(86,449,o),
(64,449,o),
(64,394,cs),
(64,338,o),
(86,338,o),
(121,338,cs),
(156,338,o),
(178,338,o),
(178,394,cs),
(178,449,o),
(156,449,o),
(121,449,c)
);
}
);
width = 240;
}
);
unicode = 58;
},
{
glyphname = semicolon;
layers = (
{
layerId = master01;
shapes = (
{
closed = 1;
nodes = (
(86,99,o),
(64,99,o),
(64,44,cs),
(64,9,o),
(72,-4,o),
(87,-9,c),
(46,-112,l),
(91,-136,l),
(145,-51,ls),
(158,-30,o),
(168,-10,o),
(174,11,cs),
(176,19,o),
(178,30,o),
(178,44,cs),
(178,99,o),
(156,99,o),
(121,99,c,{
name = hr00;
})
);
},
{
closed = 1;
nodes = (
(86,449,o),
(64,449,o),
(64,394,cs),
(64,338,o),
(86,338,o),
(121,338,cs),
(156,338,o),
(178,338,o),
(178,394,cs),
(178,449,o),
(156,449,o),
(121,449,c)
);
}
);
width = 240;
}
);
unicode = 59;
},
{
glyphname = ellipsis;
layers = (
{
layerId = master01;
shapes = (
{
closed = 1;
nodes = (
(86,99,o),
(64,99,o),
(64,44,cs),
(64,-12,o),
(86,-12,o),
(121,-12,cs),
(156,-12,o),
(178,-12,o),
(178,44,cs),
(178,99,o),
(156,99,o),
(121,99,c,{
name = hr00;
})
);
},
{
closed = 1;
nodes = (
(326,99,o),
(304,99,o),
(304,44,cs),
(304,-12,o),
(326,-12,o),
(361,-12,cs),
(396,-12,o),
(418,-12,o),
(418,44,cs),
(418,99,o),
(396,99,o),
(361,99,c)
);
},
{
closed = 1;
nodes = (
(566,99,o),
(544,99,o),
(544,44,cs),
(544,-12,o),
(566,-12,o),
(601,-12,cs),
(636,-12,o),
(658,-12,o),
(658,44,cs),
(658,99,o),
(636,99,o),
(601,99,c)
);
}
);
width = 720;
}
);
unicode = 8230;
},
{
glyphname = exclam;
layers = (
{
layerId = master01;
shapes = (
{
closed = 1;
nodes = (
(112,99,o),
(90,99,o),
(90,44,cs),
(90,-12,o),
(112,-12,o),
(147,-12,cs),
(182,-12,o),
(204,-12,o),
(204,44,cs),
(204,99,o),
(182,99,o),
(147,99,c,{
name = hr00;
})
);
},
{
closed = 1;
nodes = (
(180,179,l),
(192,696,l),
(102,696,l),
(114,179,l)
);
}
);
width = 294;
}
);
unicode = 33;
},
{
glyphname = exclamdown;
layers = (
{
layerId = master01;
shapes = (
{
closed = 1;
nodes = (
(168,419,o),
(190,419,o),
(190,474,cs),
(190,530,o),
(168,530,o),
(133,530,cs),
(98,530,o),
(76,530,o),
(76,474,cs),
(76,419,o),
(98,419,o),
(133,419,c,{
name = hr00;
})
);
},
{
closed = 1;
nodes = (
(100,339,l),
(88,-178,l),
(178,-178,l),
(166,339,l)
);
}
);
width = 266;
}
);
unicode = 161;
},
{
glyphname = question;
layers = (
{
layerId = master01;
shapes = (
{
closed = 1;
nodes = (
(234,641,o),
(246,614,o),
(246,540,cs),
(246,476,o),
(229,440,o),
(188,393,cs),
(135,332,ls),
(94,285,o),
(92,261,o),
(92,179,c),
(159,179,l),
(159,233,o),
(159,243,o),
(200,290,cs),
(253,351,ls),
(294,398,o),
(331,459,o),
(331,541,cs),
(331,652,o),
(283,712,o),
(149,712,cs),
(122,712,o),
(65,705,o),
(20,691,c),
(35,626,l),
(60,632,o),
(97,641,o),
(149,641,c,{
name = hr00;
})
);
},
{
closed = 1;
nodes = (
(94,99,o),
(72,99,o),
(72,44,cs),
(72,-12,o),
(94,-12,o),
(129,-12,cs),
(164,-12,o),
(186,-12,o),
(186,44,cs),
(186,99,o),
(164,99,o),
(129,99,c)
);
}
);
width = 361;
}
);
unicode = 63;
},
{
glyphname = questiondown;
layers = (
{
layerId = master01;
shapes = (
{
closed = 1;
nodes = (
(127,-121,o),
(115,-94,o),
(115,-20,cs),
(115,44,o),
(132,80,o),
(173,127,cs),
(226,188,ls),
(267,235,o),
(269,259,o),
(269,341,c),
(202,341,l),
(202,287,o),
(202,277,o),
(161,230,cs),
(108,169,ls),
(67,122,o),
(30,61,o),
(30,-21,cs),
(30,-132,o),
(78,-192,o),
(212,-192,cs),
(239,-192,o),
(296,-185,o),
(341,-171,c),
(326,-106,l),
(301,-112,o),
(264,-121,o),
(212,-121,c,{
name = hr00;
})
);
},
{
closed = 1;
nodes = (
(267,421,o),
(289,421,o),
(289,476,cs),
(289,532,o),
(267,532,o),
(232,532,cs),
(197,532,o),
(175,532,o),
(175,476,cs),
(175,421,o),
(197,421,o),
(232,421,c)
);
}
);
width = 361;
}
);
unicode = 191;
},
{
glyphname = periodcentered;
layers = (
{
layerId = master01;
shapes = (
{
closed = 1;
nodes = (
(85,365,o),
(60,365,o),
(60,302,cs),
(60,237,o),
(85,237,o),
(125,237,cs),
(165,237,o),
(191,237,o),
(191,302,cs),
(191,365,o),
(165,365,o),
(125,365,c,{
name = hr00;
})
);
}
);
width = 251;
}
);
unicode = 183;
},
{
glyphname = bullet;
layers = (
{
layerId = master01;
shapes = (
{
closed = 1;
nodes = (
(90,376,o),
(60,376,o),
(60,301,cs),
(60,226,o),
(90,226,o),
(137,226,cs),
(185,226,o),
(214,226,o),
(214,301,cs),
(214,376,o),
(185,376,o),
(137,376,c,{
name = hr00;
})
);
}
);
width = 274;
}
);
unicode = 8226;
},
{
glyphname = asterisk;
layers = (
{
layerId = master01;
shapes = (
{
closed = 1;
nodes = (
(235,744,l),
(173,744,l),
(173,626,l),
(61,663,l),
(40,604,l),
(151,567,l),
(84,470,l),
(137,435,l),
(158,465,o),
(183,498,o),
(203,529,c),
(274,435,l),
(324,473,l),
(255,567,l),
(367,605,l),
(346,663,l),
(235,626,l,{
name = hr00;
})
);
}
);
width = 407;
}
);
unicode = 42;
},
{
glyphname = numbersign;
layers = (
{
layerId = master01;
shapes = (
{
closed = 1;
nodes = (
(76,387,l),
(156,387,l),
(131,247,l),
(52,247,l),
(40,182,l),
(119,182,l),
(87,0,l),
(157,0,l),
(189,182,l),
(354,182,l),
(322,0,l),
(392,0,l),
(424,182,l),
(504,182,l),
(517,247,l),
(436,247,l),
(461,387,l),
(540,387,l),
(553,452,l),
(472,452,l),
(507,646,l),
(437,646,l),
(402,452,l),
(237,452,l),
(272,646,l),
(202,646,l),
(167,452,l),
(88,452,l,{
name = hr00;
})
);
},
{
closed = 1;
nodes = (
(226,387,l),
(391,387,l),
(366,247,l),
(201,247,l)
);
}
);
width = 593;
}
);
unicode = 35;
},
{
glyphname = slash;
layers = (
{
layerId = master01;
shapes = (
{
closed = 1;
nodes = (
(276,700,l),
(0,0,l),
(76,0,l),
(352,700,l,{
name = hr00;
})
);
}
);
width = 352;
}
);
unicode = 47;
},
{
glyphname = backslash;
layers = (
{
layerId = master01;
shapes = (
{
closed = 1;
nodes = (
(0,700,l),
(276,0,l),
(352,0,l),
(76,700,l,{
name = hr00;
})
);
}
);
width = 352;
}
);
unicode = 92;
},
{
glyphname = hyphen;
layers = (
{
layerId = master01;
shapes = (
{
closed = 1;
nodes = (
(40,267,l),
(353,267,l),
(353,332,l),
(40,332,l,{
name = hr00;
})
);
}
);
width = 393;
}
);
unicode = 45;
},
{
glyphname = endash;
layers = (
{
layerId = master01;
shapes = (
{
closed = 1;
nodes = (
(0,267,l),
(592,267,l),
(592,332,l),
(0,332,l,{
name = hr00;
})
);
}
);
width = 592;
}
);
unicode = 8211;
},
{
glyphname = emdash;
layers = (
{
layerId = master01;
shapes = (
{
closed = 1;
nodes = (
(0,267,l),
(726,267,l),
(726,332,l),
(0,332,l,{
name = hr00;
})
);
}
);
width = 726;
}
);
unicode = 8212;
},
{
glyphname = underscore;
layers = (
{
layerId = master01;
shapes = (
{
closed = 1;
nodes = (
(30,-77,l),
(400,-77,l),
(400,-12,l),
(30,-12,l,{
name = hr00;
})
);
}
);
width = 430;
}
);
unicode = 95;
},
{
glyphname = parenleft;
layers = (
{
layerId = master01;
shapes = (
{
closed = 1;
nodes = (
(166,664,o),
(180,745,o),
(295,745,c),
(290,810,l),
(81,810,o),
(79,689,o),
(79,349,cs),
(79,9,o),
(81,-112,o),
(290,-112,c),
(295,-47,l),
(180,-47,o),
(166,34,o),
(166,139,cs),
(166,559,l,{
name = hr00;
})
);
}
);
width = 340;
}
);
unicode = 40;
},
{
glyphname = parenright;
layers = (
{
layerId = master01;
shapes = (
{
closed = 1;
nodes = (
(174,34,o),
(160,-47,o),
(45,-47,c),
(50,-112,l),
(259,-112,o),
(261,9,o),
(261,349,cs),
(261,689,o),
(259,810,o),
(50,810,c),
(45,745,l),
(160,745,o),
(174,664,o),
(174,559,cs),
(174,139,l,{
name = hr00;
})
);
}
);
width = 340;
}
);
unicode = 41;
},
{
glyphname = braceleft;
layers = (
{
layerId = master01;
shapes = (
{
closed = 1;
nodes = (
(80,-34,o),
(115,-112,o),
(290,-112,c),
(295,-47,l),
(180,-47,o),
(166,34,o),
(166,139,cs),
(166,287,o),
(154,325,o),
(99,344,c),
(99,352,l),
(154,370,o),
(166,411,o),
(166,559,cs),
(166,664,o),
(180,745,o),
(295,745,c),
(290,810,l),
(115,810,o),
(80,733,o),
(80,530,cs),
(80,514,o),
(82,492,o),
(82,469,cs),
(82,423,o),
(74,374,o),
(23,369,c),
(23,319,l),
(74,314,o),
(82,270,o),
(82,228,cs),
(82,206,o),
(80,186,o),
(80,170,c,{
name = hr00;
})
);
}
);
width = 340;
}
);
unicode = 123;
},
{
glyphname = braceright;
layers = (
{
layerId = master01;
shapes = (
{
closed = 1;
nodes = (
(260,186,o),
(258,206,o),
(258,228,cs),
(258,270,o),
(266,314,o),
(317,319,c),
(317,369,l),
(266,374,o),
(258,423,o),
(258,469,cs),
(258,492,o),
(260,514,o),
(260,530,cs),
(260,733,o),
(225,810,o),
(50,810,c),
(45,745,l),
(160,745,o),
(174,664,o),
(174,559,cs),
(174,411,o),
(186,370,o),
(241,352,c),
(241,344,l),
(186,325,o),
(174,287,o),
(174,139,cs),
(174,34,o),
(160,-47,o),
(45,-47,c),
(50,-112,l),
(225,-112,o),
(260,-34,o),
(260,170,c,{
name = hr00;
})
);
}
);
width = 340;
}
);
unicode = 125;
},
{
glyphname = bracketleft;
layers = (
{
layerId = master01;
shapes = (
{
closed = 1;
nodes = (
(90,-100,l),
(280,-100,l),
(280,-30,l),
(176,-30,l),
(176,730,l),
(280,730,l),
(280,800,l),
(90,800,l,{
name = hr00;
})
);
}
);
width = 340;
}
);
unicode = 91;
},
{
glyphname = bracketright;
layers = (
{
layerId = master01;
shapes = (
{
closed = 1;
nodes = (
(250,800,l),
(60,800,l),
(60,730,l),
(164,730,l),
(164,-30,l),
(60,-30,l),
(60,-100,l),
(250,-100,l,{
name = hr00;
})
);
}
);
width = 340;
}
);
unicode = 93;
},
{
glyphname = quotesinglbase;
layers = (
{
layerId = master01;
shapes = (
{
closed = 1;
nodes = (
(86,99,o),
(64,99,o),
(64,44,cs),
(64,9,o),
(72,-4,o),
(87,-9,c),
(46,-112,l),
(91,-136,l),
(145,-51,ls),
(158,-30,o),
(168,-10,o),
(174,11,cs),
(176,19,o),
(178,30,o),
(178,44,cs),
(178,99,o),
(156,99,o),
(121,99,c,{
name = hr00;
})
);
}
);
width = 240;
}
);
unicode = 8218;
},
{
glyphname = quotedblbase;
layers = (
{
layerId = master01;
shapes = (
{
closed = 1;
nodes = (
(63,99,o),
(41,99,o),
(41,44,cs),
(41,9,o),
(49,-4,o),
(64,-9,c),
(23,-112,l),
(68,-136,l),
(122,-51,ls),
(135,-30,o),
(145,-10,o),
(151,11,cs),
(153,19,o),
(155,30,o),
(155,44,cs),
(155,99,o),
(133,99,o),
(98,99,c,{
name = hr00;
})
);
},
{
closed = 1;
nodes = (
(233,99,o),
(211,99,o),
(211,44,cs),
(211,9,o),
(219,-4,o),
(234,-9,c),
(193,-112,l),
(238,-136,l),
(292,-51,ls),
(305,-30,o),
(315,-10,o),
(321,11,cs),
(323,19,o),
(325,30,o),
(325,44,cs),
(325,99,o),
(303,99,o),
(268,99,c)
);
}
);
width = 355;
}
);
unicode = 8222;
},
{
glyphname = quotedblleft;
layers = (
{
layerId = master01;
shapes = (
{
closed = 1;
nodes = (
(122,520,o),
(144,520,o),
(144,575,cs),
(144,610,o),
(136,623,o),
(121,628,c),
(162,731,l),
(117,755,l),
(63,670,ls),
(50,649,o),
(40,629,o),
(34,608,cs),
(32,600,o),
(30,589,o),
(30,575,cs),
(30,520,o),
(52,520,o),
(87,520,c,{
name = hr00;
})
);
},
{
closed = 1;
nodes = (
(292,520,o),
(314,520,o),
(314,575,cs),
(314,610,o),
(306,623,o),
(291,628,c),
(332,731,l),
(287,755,l),
(233,670,ls),
(220,649,o),
(210,629,o),
(204,608,cs),
(202,600,o),
(200,589,o),
(200,575,cs),
(200,520,o),
(222,520,o),
(257,520,c)
);
}
);
width = 355;
}
);
unicode = 8220;
},
{
glyphname = quotedblright;
layers = (
{
layerId = master01;
shapes = (
{
closed = 1;
nodes = (
(63,734,o),
(41,734,o),
(41,679,cs),
(41,644,o),
(49,631,o),
(64,626,c),
(23,523,l),
(68,499,l),
(122,584,ls),
(135,605,o),
(145,625,o),
(151,646,cs),
(153,654,o),
(155,665,o),
(155,679,cs),
(155,734,o),
(133,734,o),
(98,734,c,{
name = hr00;
})
);
},
{
closed = 1;
nodes = (
(233,734,o),
(211,734,o),
(211,679,cs),
(211,644,o),
(219,631,o),
(234,626,c),
(193,523,l),
(238,499,l),
(292,584,ls),
(305,605,o),
(315,625,o),
(321,646,cs),
(323,654,o),
(325,665,o),
(325,679,cs),
(325,734,o),
(303,734,o),
(268,734,c)
);
}
);
width = 355;
}
);
unicode = 8221;
},
{
glyphname = quoteleft;
layers = (
{
layerId = master01;
shapes = (
{
closed = 1;
nodes = (
(122,520,o),
(144,520,o),
(144,575,cs),
(144,610,o),
(136,623,o),
(121,628,c),
(162,731,l),
(117,755,l),
(63,670,ls),
(50,649,o),
(40,629,o),
(34,608,cs),
(32,600,o),
(30,589,o),
(30,575,cs),
(30,520,o),
(52,520,o),
(87,520,c,{
name = hr00;
})
);
}
);
width = 185;
}
);
unicode = 8216;
},
{
glyphname = quoteright;
layers = (
{
layerId = master01;
shapes = (
{
closed = 1;
nodes = (
(63,734,o),
(41,734,o),
(41,679,cs),
(41,644,o),
(49,631,o),
(64,626,c),
(23,523,l),
(68,499,l),
(122,584,ls),
(135,605,o),
(145,625,o),
(151,646,cs),
(153,654,o),
(155,665,o),
(155,679,cs),
(155,734,o),
(133,734,o),
(98,734,c,{
name = hr00;
})
);
}
);
width = 185;
}
);
unicode = 8217;
},
{
glyphname = guillemetleft;
lastChange = "2023-02-17 10:31:29 +0000";
layers = (
{
layerId = master01;
shapes = (
{
closed = 1;
nodes = (
(190,520,l),
(119,532,l),
(30,308,l),
(119,84,l),
(190,96,l),
(115,308,l,{
name = hr00;
})
);
},
{
closed = 1;
nodes = (
(390,520,l),
(319,532,l),
(230,308,l),
(319,84,l),
(390,96,l),
(315,308,l)
);
}
);
width = 440;
}
);
unicode = 171;
},
{
glyphname = guillemetright;
lastChange = "2023-02-17 10:31:29 +0000";
layers = (
{
layerId = master01;
shapes = (
{
closed = 1;
nodes = (
(325,308,l),
(250,96,l),
(321,84,l),
(410,308,l),
(321,532,l),
(250,520,l,{
name = hr00;
})
);
},
{
closed = 1;
nodes = (
(125,308,l),
(50,96,l),
(121,84,l),
(210,308,l),
(121,532,l),
(50,520,l)
);
}
);
width = 440;
}
);
unicode = 187;
},
{
glyphname = guilsinglleft;
layers = (
{
layerId = master01;
shapes = (
{
closed = 1;
nodes = (
(190,520,l),
(119,532,l),
(30,308,l),
(119,84,l),
(190,96,l),
(115,308,l,{
name = hr00;
})
);
}
);
width = 240;
}
);
unicode = 8249;
},
{
glyphname = guilsinglright;
layers = (
{
layerId = master01;
shapes = (
{
closed = 1;
nodes = (
(125,308,l),
(50,96,l),
(121,84,l),
(210,308,l),
(121,532,l),
(50,520,l,{
name = hr00;
})
);
}
);
width = 240;
}
);
unicode = 8250;
},
{
glyphname = quotedbl;
layers = (
{
layerId = master01;
shapes = (
{
closed = 1;
nodes = (
(115,487,l),
(131,700,l),
(45,700,l),
(60,487,l,{
name = hr00;
})
);
},
{
closed = 1;
nodes = (
(270,487,l),
(286,700,l),
(200,700,l),
(215,487,l)
);
}
);
width = 331;
}
);
unicode = 34;
},
{
glyphname = quotesingle;
layers = (
{
layerId = master01;
shapes = (
{
closed = 1;
nodes = (
(115,487,l),
(131,700,l),
(45,700,l),
(60,487,l,{
name = hr00;
})
);
}
);
width = 176;
}
);
unicode = 39;
},
{
glyphname = florin;
layers = (
{
layerId = master01;
shapes = (
{
closed = 1;
nodes = (
(88,288,l),
(211,288,l),
(222,197,o),
(234,105,o),
(234,68,cs),
(234,-19,o),
(191,-34,o),
(134,-34,cs),
(111,-34,o),
(96,-31,o),
(84,-29,c),
(66,-90,l),
(88,-97,o),
(113,-103,o),
(132,-103,cs),
(256,-103,o),
(314,-36,o),
(314,65,cs),
(314,104,o),
(302,197,o),
(291,288,c),
(424,288,l),
(424,348,l),
(284,348,l),
(277,407,o),
(272,460,o),
(272,486,cs,{
name = hr01;
}),
(272,573,o),
(315,589,o),
(372,589,cs),
(411,589,o),
(427,586,o),
(446,584,c),
(464,644,l),
(444,651,o),
(400,658,o),
(374,658,cs),
(250,658,o),
(192,590,o),
(192,489,cs),
(192,462,o),
(197,408,o),
(204,348,c),
(88,348,l)
);
}
);
width = 500;
}
);
unicode = 402;
},
{
glyphname = apple;
layers = (
{
layerId = master01;
shapes = (
{
closed = 1;
nodes = (
(579,-88,o),
(583,-88,o),
(586,-88,cs),
(594,-88,o),
(601,-89,o),
(609,-89,cs),
(635,-89,o),
(637,-70,o),
(654,-60,cs),
(669,-52,o),
(690,-51,o),
(703,-42,cs),
(716,-33,o),
(721,-11,o),
(733,1,cs),
(743,11,o),
(759,12,o),
(768,23,cs),
(779,36,o),
(778,60,o),
(786,74,cs),
(796,91,o),
(820,92,o),
(820,120,cs),
(820,130,o),
(818,141,o),
(818,152,cs),
(818,177,o),
(840,180,o),
(843,200,c),
(843,214,o),
(832,229,o),
(832,244,cs,{
name = hr01;
}),
(832,257,o),
(843,269,o),
(843,283,cs),
(843,305,o),
(819,319,o),
(819,344,cs),
(819,352,o),
(820,360,o),
(820,369,cs,{
name = hr02;
}),
(820,397,o),
(795,400,o),
(784,418,cs),
(778,428,o),
(783,450,o),
(777,460,cs),
(766,479,o),
(740,483,o),
(726,496,cs),
(714,508,o),
(716,526,o),
(703,535,cs),
(689,545,o),
(673,542,o),
(658,550,cs),
(639,560,o),
(637,586,o),
(610,586,cs),
(600,586,o),
(590,583,o),
(582,583,cs),
(558,583,o),
(551,608,o),
(525,608,cs),
(511,608,o),
(494,596,o),
(480,596,cs),
(467,596,o),
(449,608,o),
(436,608,cs),
(414,608,o),
(406,585,o),
(381,585,cs),
(372,585,o),
(363,587,o),
(355,587,cs),
(330,586,o),
(323,558,o),
(306,549,cs),
(290,541,o),
(268,543,o),
(255,532,cs),
(244,522,o),
(240,501,o),
(230,491,cs),
(219,480,o),
(198,480,o),
(190,467,cs),
(183,456,o),
(186,435,o),
(179,424,cs),
(169,407,o),
(144,401,o),
(144,376,cs),
(144,368,o),
(145,359,o),
(145,351,cs),
(145,332,o),
(120,311,o),
(120,290,cs),
(120,275,o),
(132,265,o),
(132,248,cs,{
name = hr03;
}),
(132,233,o),
(120,218,o),
(120,204,cs),
(120,183,o),
(145,168,o),
(145,149,cs),
(145,141,o),
(142,133,o),
(142,124,cs),
(142,98,o),
(168,87,o),
(176,75,cs),
(187,57,o),
(180,46,o),
(191,28,cs),
(201,12,o),
(217,15,o),
(230,4,cs),
(243,-7,o),
(242,-31,o),
(260,-42,cs),
(276,-52,o),
(283,-43,o),
(306,-55,cs),
(319,-62,o),
(331,-91,o),
(357,-91,cs),
(364,-91,o),
(373,-89,o),
(381,-89,cs),
(405,-89,o),
(416,-114,o),
(436,-114,cs),
(451,-114,o),
(466,-102,o),
(482,-102,cs),
(497,-102,o),
(513,-112,o),
(528,-112,cs),
(545,-112,o),
(558,-94,o),
(576,-89,c)
);
},
{
closed = 1;
nodes = (
(537,0,o),
(527,-13,o),
(515,-13,cs),
(504,-13,o),
(493,-6,o),
(482,-6,cs),
(470,-6,o),
(458,-15,o),
(446,-15,c),
(432,-13,o),
(425,3,o),
(406,3,cs),
(401,3,o),
(396,2,o),
(391,2,cs),
(372,2,o),
(365,23,o),
(354,28,cs),
(337,37,o),
(332,29,o),
(321,37,cs),
(308,45,o),
(309,63,o),
(299,71,cs),
(290,79,o),
(278,77,o),
(271,88,cs),
(263,101,o),
(268,110,o),
(260,123,cs),
(255,132,o),
(235,139,o),
(235,158,cs,{
name = hr04;
}),
(235,163,o),
(237,169,o),
(237,174,cs),
(237,189,o),
(220,200,o),
(220,215,cs,{
name = hr05;
}),
(220,226,o),
(228,237,o),
(228,248,cs),
(228,260,o),
(220,267,o),
(220,278,cs),
(220,294,o),
(237,308,o),
(237,324,cs),
(237,329,o),
(236,335,o),
(236,340,cs),
(236,359,o),
(255,363,o),
(262,376,cs),
(267,384,o),
(265,399,o),
(270,407,cs),
(277,416,o),
(291,416,o),
(299,424,cs),
(307,432,o),
(309,447,o),
(318,454,cs),
(327,462,o),
(343,460,o),
(354,466,cs),
(367,472,o),
(371,493,o),
(390,493,cs),
(396,493,o),
(401,492,o),
(407,492,cs),
(426,492,o),
(433,509,o),
(449,509,cs),
(459,509,o),
(471,500,o),
(481,500,cs),
(491,500,o),
(503,509,o),
(514,509,cs),
(533,509,o),
(536,491,o),
(555,491,cs),
(561,491,o),
(568,493,o),
(575,493,cs),
(595,493,o),
(596,474,o),
(609,467,cs),
(621,460,o),
(632,464,o),
(642,456,cs),
(652,449,o),
(650,436,o),
(659,428,cs),
(669,418,o),
(688,415,o),
(696,402,cs),
(700,394,o),
(697,379,o),
(701,371,cs),
(709,357,o),
(727,356,o),
(727,335,cs),
(727,329,o),
(726,323,o),
(726,318,cs),
(726,300,o),
(744,289,o),
(744,273,cs,{
name = hr06;
}),
(744,264,o),
(736,254,o),
(736,245,cs),
(736,234,o),
(744,223,o),
(744,213,c),
(741,199,o),
(726,196,o),
(726,177,cs),
(726,171,o),
(727,164,o),
(727,157,cs,{
name = hr07;
}),
(727,133,o),
(711,136,o),
(703,122,cs),
(697,111,o),
(697,94,o),
(690,84,cs),
(683,76,o),
(671,76,o),
(664,68,cs),
(656,60,o),
(652,45,o),
(642,38,cs),
(633,31,o),
(617,30,o),
(607,24,c),
(595,19,o),
(594,3,o),
(574,3,cs),
(569,3,o),
(564,4,o),
(559,4,cs),
(556,4,o),
(553,4,o),
(550,3,c)
);
},
{
closed = 1;
nodes = (
(388,417,o),
(312,341,o),
(312,247,cs),
(312,153,o),
(388,77,o),
(482,77,cs),
(576,77,o),
(652,153,o),
(652,247,cs),
(652,341,o),
(576,417,o),
(482,417,c)
);
},
{
closed = 1;
nodes = (
(525,292,l),
(525,117,l),
(440,117,l),
(440,292,l),
(386,292,l),
(386,360,l),
(577,360,l),
(577,292,l)
);
}
);
width = 963;
}
);
unicode = 63743;
},
{
glyphname = at;
layers = (
{
layerId = master01;
shapes = (
{
closed = 1;
nodes = (
(501,60,o),
(595,82,o),
(632,97,c),
(632,450,ls),
(632,598,o),
(516,620,o),
(354,620,cs),
(192,620,o),
(70,602,o),
(70,252,cs),
(70,-98,o),
(192,-116,o),
(354,-116,cs),
(473,-116,o),
(599,-71,o),
(648,-50,c),
(628,6,l),
(571,-13,o),
(471,-45,o),
(354,-45,cs),
(226,-45,o),
(159,-37,o),
(159,157,cs),
(159,347,ls),
(159,541,o),
(226,549,o),
(354,549,cs),
(482,549,o),
(550,545,o),
(550,461,cs),
(550,372,l),
(382,370,o),
(285,367,o),
(285,225,cs),
(285,140,o),
(301,60,o),
(420,60,c,{
name = hr00;
})
);
},
{
closed = 1;
nodes = (
(523,130,o),
(492,125,o),
(455,125,cs),
(371,125,o),
(367,158,o),
(367,214,cs),
(367,237,ls),
(367,315,o),
(455,315,o),
(550,315,c),
(550,135,l)
);
}
);
width = 708;
}
);
unicode = 64;
},
{
glyphname = ampersand;
layers = (
{
layerId = master01;
shapes = (
{
closed = 1;
nodes = (
(364,392,ls),
(437,433,o),
(442,456,o),
(442,538,cs),
(442,615,o),
(424,691,o),
(269,691,cs),
(112,691,o),
(92,615,o),
(92,538,cs),
(92,476,o),
(104,439,o),
(143,391,cs),
(165,363,l),
(108,331,ls),
(52,299,o),
(40,230,o),
(40,173,cs,{
name = hr01;
}),
(40,93,o),
(47,-12,o),
(216,-12,cs),
(334,-12,o),
(382,17,o),
(406,62,c),
(466,-13,l,{
name = hr02;
}),
(563,0,l),
(284,346,l)
);
},
{
closed = 1;
nodes = (
(131,59,o),
(123,110,o),
(123,123,cs),
(123,214,ls),
(123,240,o),
(132,259,o),
(178,285,cs),
(212,304,l),
(358,122,l),
(352,97,o),
(326,59,o),
(222,59,c,{
name = hr03;
})
);
},
{
closed = 1;
nodes = (
(175,578,o),
(184,620,o),
(267,620,cs),
(350,620,o),
(359,576,o),
(359,565,cs),
(359,510,ls),
(359,485,o),
(353,472,o),
(320,453,cs),
(237,405,l),
(204,446,ls),
(179,478,o),
(175,495,o),
(175,511,cs),
(175,565,l,{
name = hr04;
})
);
}
);
width = 508;
}
);
unicode = 38;
},
{
glyphname = paragraph;
layers = (
{
layerId = master01;
shapes = (
{
closed = 1;
nodes = (
(309,0,l),
(309,658,l),
(227,658,ls),
(40,658,o),
(40,577,o),
(40,445,cs),
(40,313,o),
(40,232,o),
(227,232,c),
(227,0,l,{
name = hr00;
})
);
}
);
width = 399;
}
);
unicode = 182;
},
{
glyphname = section;
layers = (
{
layerId = master01;
shapes = (
{
closed = 1;
nodes = (
(57,190,o),
(75,129,o),
(174,116,cs),
(273,103,ls),
(344,94,o),
(351,42,o),
(351,-5,cs),
(351,-95,o),
(312,-123,o),
(237,-123,cs),
(176,-123,o),
(110,-109,o),
(73,-97,c),
(55,-157,l),
(110,-181,o),
(182,-194,o),
(248,-194,cs),
(385,-194,o),
(435,-107,o),
(435,-6,cs),
(435,50,o),
(425,88,o),
(408,115,c),
(426,147,o),
(435,185,o),
(435,226,cs),
(435,352,o),
(387,391,o),
(308,402,cs),
(214,415,ls),
(152,423,o),
(141,461,o),
(141,529,cs),
(141,627,o),
(191,641,o),
(247,641,cs),
(308,641,o),
(368,628,o),
(393,622,c),
(411,680,l),
(368,696,o),
(312,712,o),
(246,712,cs),
(122,712,o),
(57,638,o),
(57,529,cs),
(57,472,o),
(62,428,o),
(81,398,c),
(65,370,o),
(57,335,o),
(57,297,c,{
name = hr00;
})
);
},
{
closed = 1;
nodes = (
(152,191,o),
(141,229,o),
(141,297,cs),
(141,355,l),
(151,352,o),
(162,349,o),
(174,348,cs),
(273,335,ls),
(344,326,o),
(351,274,o),
(351,227,cs),
(351,159,l),
(338,164,o),
(323,168,o),
(308,170,c),
(214,183,l)
);
}
);
width = 490;
}
);
unicode = 167;
},
{
glyphname = copyright;
layers = (
{
layerId = master01;
shapes = (
{
closed = 1;
nodes = (
(493,615,o),
(493,710,o),
(270,710,cs),
(50,710,o),
(50,615,o),
(50,459,cs),
(50,304,o),
(50,209,o),
(270,209,cs),
(493,209,o),
(493,304,o),
(493,459,c,{
name = hr00;
})
);
},
{
closed = 1;
nodes = (
(101,248,o),
(101,303,o),
(101,365,cs),
(101,554,ls),
(101,616,o),
(101,671,o),
(269,671,cs),
(437,671,o),
(437,616,o),
(437,554,cs),
(437,365,ls),
(437,303,o),
(437,248,o),
(269,248,c)
);
},
{
closed = 1;
nodes = (
(171,636,o),
(170,582,o),
(170,459,cs),
(170,335,o),
(171,282,o),
(289,282,cs),
(318,282,o),
(347,293,o),
(366,301,c),
(353,343,l),
(330,338,o),
(311,334,o),
(289,334,cs),
(231,334,o),
(231,357,o),
(231,389,cs),
(231,529,ls),
(231,562,o),
(231,583,o),
(289,583,cs),
(314,583,o),
(334,579,o),
(349,577,c),
(359,624,l),
(332,632,o),
(302,636,o),
(289,636,c)
);
}
);
width = 543;
}
);
unicode = 169;
},
{
glyphname = registered;
layers = (
{
layerId = master01;
shapes = (
{
closed = 1;
nodes = (
(493,615,o),
(493,710,o),
(270,710,cs),
(50,710,o),
(50,615,o),
(50,459,cs),
(50,304,o),
(50,209,o),
(270,209,cs),
(493,209,o),
(493,304,o),
(493,459,c,{
name = hr00;
})
);
},
{
closed = 1;
nodes = (
(101,248,o),
(101,303,o),
(101,365,cs),
(101,554,ls),
(101,616,o),
(101,671,o),
(269,671,cs),
(437,671,o),
(437,616,o),
(437,554,cs),
(437,365,ls),
(437,303,o),
(437,248,o),
(269,248,c)
);
},
{
closed = 1;
nodes = (
(389,289,l),
(326,425,l),
(362,440,o),
(377,470,o),
(377,522,cs),
(377,602,o),
(341,630,o),
(251,630,cs),
(178,630,l),
(178,289,l),
(238,289,l),
(238,413,l),
(269,413,l),
(328,289,l)
);
},
{
closed = 1;
nodes = (
(317,485,o),
(317,465,o),
(262,465,cs),
(238,465,l),
(238,578,l),
(262,578,ls),
(317,578,o),
(317,559,o),
(317,531,cs),
(317,512,l)
);
}
);
width = 543;
}
);
unicode = 174;
},
{
glyphname = trademark;
layers = (
{
layerId = master01;
shapes = (
{
closed = 1;
nodes = (
(41,648,l),
(120,648,l),
(120,309,l),
(181,309,l),
(181,648,l),
(260,648,l),
(260,700,l),
(41,700,l,{
name = hr00;
})
);
},
{
closed = 1;
nodes = (
(479,401,l),
(549,576,l),
(555,309,l),
(612,309,l),
(599,700,l),
(540,700,l),
(455,472,l),
(370,700,l),
(311,700,l),
(298,309,l),
(355,309,l),
(361,576,l),
(431,401,l)
);
}
);
width = 692;
}
);
unicode = 8482;
},
{
glyphname = degree;
layers = (
{
layerId = master01;
shapes = (
{
closed = 1;
nodes = (
(310,656,o),
(310,712,o),
(179,712,cs),
(50,712,o),
(50,656,o),
(50,565,cs),
(50,474,o),
(50,418,o),
(179,418,cs),
(310,418,o),
(310,474,o),
(310,565,c,{
name = hr00;
})
);
},
{
closed = 1;
nodes = (
(239,500,o),
(239,478,o),
(181,478,cs),
(121,478,o),
(121,500,o),
(121,526,cs),
(121,603,ls),
(121,629,o),
(121,651,o),
(181,651,cs),
(239,651,o),
(239,629,o),
(239,603,cs),
(239,526,l)
);
}
);
width = 360;
}
);
unicode = 176;
},
{
glyphname = bar;
layers = (
{
layerId = master01;
shapes = (
{
closed = 1;
nodes = (
(120,800,l),
(120,-100,l),
(206,-100,l),
(206,800,l,{
name = hr00;
})
);
}
);
width = 326;
}
);
unicode = 124;
},
{
glyphname = brokenbar;
layers = (
{
layerId = master01;
shapes = (
{
closed = 1;
nodes = (
(120,800,l),
(120,453,l),
(206,453,l),
(206,800,l,{
name = hr00;
})
);
},
{
closed = 1;
nodes = (
(120,247,l),
(120,-100,l),
(206,-100,l),
(206,247,l)
);
}
);
width = 326;
}
);
unicode = 166;
},
{
glyphname = dagger;
layers = (
{
layerId = master01;
shapes = (
{
closed = 1;
nodes = (
(60,450,l),
(215,450,l),
(215,0,l),
(285,0,l),
(285,450,l),
(440,450,l),
(440,520,l),
(285,520,l),
(285,700,l),
(215,700,l),
(215,520,l),
(60,520,l,{
name = hr00;
})
);
}
);
width = 500;
}
);
unicode = 8224;
},
{
glyphname = literSign;
lastChange = "2023-02-17 10:31:29 +0000";
layers = (
{
layerId = master01;
shapes = (
{
closed = 1;
nodes = (
(121,125,ls),
(121,43,o),
(124,-12,o),
(227,-12,cs),
(255,-12,o),
(277,-7,o),
(298,0,c),
(291,50,l),
(276,47,o),
(264,46,o),
(254,46,cs),
(206,46,o),
(203,75,o),
(203,125,cs),
(203,662,l),
(121,650,l,{
name = hr00;
})
);
}
);
width = 338;
}
);
unicode = 8467;
},
{
glyphname = daggerdbl;
layers = (
{
layerId = master01;
shapes = (
{
closed = 1;
nodes = (
(60,450,l),
(215,450,l),
(215,250,l),
(60,250,l),
(60,180,l),
(215,180,l),
(215,0,l),
(285,0,l),
(285,180,l),
(440,180,l),
(440,250,l),
(285,250,l),
(285,450,l),
(440,450,l),
(440,520,l),
(285,520,l),
(285,700,l),
(215,700,l),
(215,520,l),
(60,520,l,{
name = hr00;
})
);
}
);
width = 500;
}
);
unicode = 8225;
},
{
glyphname = estimated;
layers = (
{
layerId = master01;
shapes = (
{
closed = 1;
nodes = (
(157,78,l),
(198,39,o),
(247,19,o),
(302,19,cs),
(385,19,o),
(449,59,o),
(495,139,c),
(530,118,l),
(461,26,o),
(409,-17,o),
(302,-17,cs),
(138,-17,o),
(44,107,o),
(44,259,cs),
(44,422,o),
(142,535,o),
(302,535,cs),
(473,535,o),
(554,413,o),
(561,259,c),
(157,259,l,{
name = hr00;
})
);
},
{
closed = 1;
nodes = (
(448,440,l),
(406,480,o),
(357,500,o),
(301,500,cs),
(244,500,o),
(196,480,o),
(157,440,c),
(157,295,l),
(448,295,l)
);
}
);
width = 600;
}
);
unicode = 8494;
},
{
glyphname = cent;
layers = (
{
layerId = master01;
shapes = (
{
closed = 1;
nodes = (
(312,-100,l),
(312,55,l),
(361,57,o),
(399,67,o),
(432,81,c),
(420,135,l),
(376,126,o),
(334,119,o),
(297,119,cs),
(233,119,o),
(187,141,o),
(187,213,cs),
(187,441,ls),
(187,493,o),
(187,532,o),
(300,532,cs),
(355,532,o),
(386,527,o),
(414,521,c),
(430,574,l),
(390,590,o),
(342,597,o),
(312,598,c),
(312,750,l),
(249,750,l),
(249,595,l),
(106,576,o),
(104,477,o),
(104,327,cs),
(104,174,o),
(106,73,o),
(249,57,c),
(249,-100,l,{
name = hr00;
})
);
}
);
width = 500;
}
);
unicode = 162;
},
{
glyphname = currency;
layers = (
{
layerId = master01;
shapes = (
{
closed = 1;
nodes = (
(423,539,l),
(337,453,l),
(316,460,o),
(288,464,o),
(250,464,cs),
(212,464,o),
(184,460,o),
(163,452,c),
(77,539,l),
(28,490,l),
(113,404,l),
(106,381,o),
(106,351,o),
(106,317,cs),
(106,282,o),
(106,253,o),
(113,229,c),
(28,144,l),
(77,95,l),
(163,181,l),
(184,174,o),
(212,170,o),
(250,170,cs),
(288,170,o),
(316,173,o),
(337,181,c),
(423,95,l),
(472,144,l),
(387,228,l),
(396,252,o),
(396,282,o),
(396,317,cs),
(396,352,o),
(396,382,o),
(387,405,c),
(472,490,l,{
name = hr00;
})
);
},
{
closed = 1;
nodes = (
(325,252,o),
(325,230,o),
(252,230,cs),
(177,230,o),
(177,252,o),
(177,278,cs),
(177,355,ls),
(177,381,o),
(177,403,o),
(248,403,cs),
(325,403,o),
(325,381,o),
(325,355,cs),
(325,278,l)
);
}
);
width = 500;
}
);
unicode = 164;
},
{
glyphname = dollar;
layers = (
{
layerId = master01;
shapes = (
{
closed = 1;
nodes = (
(280,-100,l),
(280,-11,l),
(396,0,o),
(440,83,o),
(440,167,cs),
(440,302,o),
(390,329,o),
(311,348,cs),
(216,371,ls),
(154,386,o),
(142,410,o),
(142,487,cs),
(142,574,o),
(193,586,o),
(250,586,cs),
(312,586,o),
(374,572,o),
(399,565,c),
(417,625,l),
(381,638,o),
(334,652,o),
(280,656,c),
(280,750,l),
(217,750,l),
(217,655,l),
(115,643,o),
(62,581,o),
(62,490,cs),
(62,374,o),
(82,327,o),
(179,304,cs),
(278,281,ls),
(347,265,o),
(356,227,o),
(356,169,cs),
(356,90,o),
(317,59,o),
(242,59,cs),
(181,59,o),
(115,74,o),
(78,87,c),
(60,25,l),
(105,5,o),
(161,-7,o),
(216,-11,c),
(216,-100,l,{
name = hr00;
})
);
}
);
width = 500;
}
);
unicode = 36;
},
{
glyphname = euro;
lastChange = "2023-02-17 10:31:29 +0000";
layers = (
{
layerId = master01;
shapes = (
{
closed = 1;
nodes = (
(53,371,l),
(116,371,l),
(116,281,l),
(53,281,l),
(53,221,l),
(117,221,l),
(122,75,o),
(152,-12,o),
(319,-12,cs),
(371,-12,o),
(427,4,o),
(464,20,c),
(446,80,l),
(426,73,o),
(367,59,o),
(317,59,cs),
(204,59,o),
(204,110,o),
(204,166,cs),
(204,221,l),
(389,221,l),
(389,281,l),
(204,281,l),
(204,371,l),
(389,371,l),
(389,431,l),
(204,431,l),
(204,480,ls),
(204,536,o),
(204,587,o),
(317,587,cs),
(367,587,o),
(426,573,o),
(446,566,c),
(464,626,l),
(427,642,o),
(371,658,o),
(319,658,cs),
(154,658,o),
(123,573,o),
(117,431,c),
(53,431,l,{
name = hr00;
})
);
}
);
width = 500;
}
);
unicode = 8364;
},
{
glyphname = lira;
layers = (
{
layerId = master01;
shapes = (
{
closed = 1;
nodes = (
(132,197,o),
(114,124,o),
(80,56,c),
(80,0,l),
(456,0,l),
(456,70,l),
(167,70,l),
(202,146,o),
(210,220,o),
(210,288,cs),
(210,349,o),
(190,459,o),
(190,487,cs,{
name = hr01;
}),
(190,574,o),
(233,587,o),
(290,587,cs),
(352,587,o),
(414,573,o),
(439,566,c),
(457,626,l),
(415,642,o),
(358,658,o),
(292,658,cs),
(168,658,o),
(110,591,o),
(110,490,cs),
(110,455,o),
(132,347,o),
(132,288,cs)
);
},
{
closed = 1;
nodes = (
(47,363,l),
(383,363,l),
(383,423,l),
(47,423,l)
);
},
{
closed = 1;
nodes = (
(383,273,l),
(47,273,l),
(47,213,l),
(383,213,l)
);
}
);
width = 500;
}
);
unicode = 8356;
},
{
glyphname = sterling;
layers = (
{
layerId = master01;
shapes = (
{
closed = 1;
nodes = (
(46,288,l),
(132,288,l),
(132,197,o),
(114,124,o),
(80,56,c),
(80,0,l),
(456,0,l),
(456,70,l),
(167,70,l),
(202,146,o),
(210,220,o),
(210,288,c),
(382,288,l),
(382,348,l),
(207,348,l),
(201,409,o),
(190,459,o),
(190,487,cs,{
name = hr01;
}),
(190,574,o),
(233,587,o),
(290,587,cs),
(352,587,o),
(414,573,o),
(439,566,c),
(457,626,l),
(415,642,o),
(358,658,o),
(292,658,cs),
(168,658,o),
(110,591,o),
(110,490,cs),
(110,455,o),
(122,407,o),
(128,348,c),
(46,348,l)
);
}
);
width = 500;
}
);
unicode = 163;
},
{
glyphname = yen;
layers = (
{
layerId = master01;
shapes = (
{
closed = 1;
nodes = (
(290,244,l),
(309,288,l),
(440,288,l),
(440,348,l),
(335,348,l),
(464,646,l),
(376,646,l),
(253,348,l),
(247,348,l),
(124,646,l),
(36,646,l),
(165,348,l),
(62,348,l),
(62,288,l),
(191,288,l),
(210,244,l),
(210,198,l),
(62,198,l),
(62,138,l),
(210,138,l),
(210,0,l),
(290,0,l),
(290,138,l),
(440,138,l),
(440,198,l),
(290,198,l,{
name = hr00;
})
);
}
);
width = 500;
}
);
unicode = 165;
},
{
glyphname = plus;
layers = (
{
layerId = master01;
shapes = (
{
closed = 1;
nodes = (
(60,282,l),
(215,282,l),
(215,127,l),
(285,127,l),
(285,282,l),
(440,282,l),
(440,352,l),
(285,352,l),
(285,507,l),
(215,507,l),
(215,352,l),
(60,352,l,{
name = hr00;
})
);
}
);
width = 500;
}
);
unicode = 43;
},
{
glyphname = minus;
layers = (
{
layerId = master01;
shapes = (
{
closed = 1;
nodes = (
(60,282,l),
(440,282,l),
(440,352,l),
(60,352,l,{
name = hr00;
})
);
}
);
width = 500;
}
);
unicode = 8722;
},
{
glyphname = multiply;
layers = (
{
layerId = master01;
shapes = (
{
closed = 1;
nodes = (
(70,449,l),
(202,317,l),
(70,185,l),
(118,137,l),
(250,269,l),
(382,137,l),
(430,185,l),
(298,317,l),
(430,449,l),
(382,497,l),
(250,365,l),
(118,497,l,{
name = hr00;
})
);
}
);
width = 500;
}
);
unicode = 215;
},
{
glyphname = divide;
layers = (
{
layerId = master01;
shapes = (
{
closed = 1;
nodes = (
(216,192,o),
(194,192,o),
(194,137,cs),
(194,81,o),
(216,81,o),
(251,81,cs),
(286,81,o),
(308,81,o),
(308,137,cs),
(308,192,o),
(286,192,o),
(251,192,c,{
name = hr00;
})
);
},
{
closed = 1;
nodes = (
(216,553,o),
(194,553,o),
(194,498,cs),
(194,442,o),
(216,442,o),
(251,442,cs),
(286,442,o),
(308,442,o),
(308,498,cs),
(308,553,o),
(286,553,o),
(251,553,c)
);
},
{
closed = 1;
nodes = (
(60,282,l),
(440,282,l),
(440,352,l),
(60,352,l)
);
}
);
width = 500;
}
);
unicode = 247;
},
{
glyphname = equal;
layers = (
{
layerId = master01;
shapes = (
{
closed = 1;
nodes = (
(60,382,l),
(440,382,l),
(440,452,l),
(60,452,l,{
name = hr00;
})
);
},
{
closed = 1;
nodes = (
(60,182,l),
(440,182,l),
(440,252,l),
(60,252,l)
);
}
);
width = 500;
}
);
unicode = 61;
},
{
glyphname = notequal;
layers = (
{
layerId = master01;
shapes = (
{
closed = 1;
nodes = (
(60,382,l),
(244,382,l),
(210,252,l),
(60,252,l),
(60,182,l),
(192,182,l),
(140,-18,l),
(185,-18,l),
(237,182,l),
(440,182,l),
(440,252,l),
(255,252,l),
(289,382,l),
(440,382,l),
(440,452,l),
(308,452,l),
(360,652,l),
(315,652,l),
(263,452,l),
(60,452,l,{
name = hr00;
})
);
}
);
width = 500;
}
);
unicode = 8800;
},
{
glyphname = greater;
layers = (
{
layerId = master01;
shapes = (
{
closed = 1;
nodes = (
(440,352,l),
(60,512,l),
(60,442,l),
(362,317,l),
(60,192,l),
(60,122,l),
(440,282,l,{
name = hr00;
})
);
}
);
width = 500;
}
);
unicode = 62;
},
{
glyphname = less;
layers = (
{
layerId = master01;
shapes = (
{
closed = 1;
nodes = (
(60,282,l),
(440,122,l),
(440,192,l),
(137,317,l),
(440,442,l),
(440,512,l),
(60,352,l,{
name = hr00;
})
);
}
);
width = 500;
}
);
unicode = 60;
},
{
glyphname = greaterequal;
layers = (
{
layerId = master01;
shapes = (
{
closed = 1;
nodes = (
(440,352,l),
(60,512,l),
(60,442,l),
(362,317,l),
(60,192,l),
(60,122,l),
(440,282,l,{
name = hr00;
})
);
},
{
closed = 1;
nodes = (
(60,0,l),
(440,0,l),
(440,70,l),
(60,70,l)
);
}
);
width = 500;
}
);
unicode = 8805;
},
{
glyphname = lessequal;
layers = (
{
layerId = master01;
shapes = (
{
closed = 1;
nodes = (
(60,282,l),
(440,122,l),
(440,192,l),
(137,317,l),
(440,442,l),
(440,512,l),
(60,352,l,{
name = hr00;
})
);
},
{
closed = 1;
nodes = (
(60,0,l),
(440,0,l),
(440,70,l),
(60,70,l)
);
}
);
width = 500;
}
);
unicode = 8804;
},
{
glyphname = plusminus;
layers = (
{
layerId = master01;
shapes = (
{
closed = 1;
nodes = (
(60,282,l),
(215,282,l),
(215,127,l),
(285,127,l),
(285,282,l),
(440,282,l),
(440,352,l),
(285,352,l),
(285,507,l),
(215,507,l),
(215,352,l),
(60,352,l,{
name = hr00;
})
);
},
{
closed = 1;
nodes = (
(60,0,l),
(440,0,l),
(440,70,l),
(60,70,l)
);
}
);
width = 500;
}
);
unicode = 177;
},
{
glyphname = approxequal;
layers = (
{
layerId = master01;
shapes = (
{
closed = 1;
nodes = (
(85,360,o),
(116,350,o),
(148,350,cs),
(223,350,o),
(275,410,o),
(349,410,cs,{
name = hr01;
}),
(382,410,o),
(413,401,o),
(440,382,c),
(440,452,l),
(412,471,o),
(379,480,o),
(346,480,cs),
(273,480,o),
(213,421,o),
(145,421,cs,{
name = hr02;
}),
(113,421,o),
(84,431,o),
(60,452,c),
(60,382,l)
);
},
{
closed = 1;
nodes = (
(84,159,o),
(116,150,o),
(149,150,cs),
(225,150,o),
(275,212,o),
(349,212,cs,{
name = hr03;
}),
(382,212,o),
(414,202,o),
(440,182,c),
(440,252,l),
(412,272,o),
(379,283,o),
(345,283,cs),
(270,283,o),
(219,221,o),
(145,221,cs,{
name = hr04;
}),
(114,221,o),
(84,231,o),
(60,252,c),
(60,182,l)
);
}
);
width = 500;
}
);
unicode = 8776;
},
{
glyphname = asciitilde;
layers = (
{
layerId = master01;
shapes = (
{
closed = 1;
nodes = (
(84,259,o),
(116,250,o),
(149,250,cs),
(225,250,o),
(275,312,o),
(349,312,cs,{
name = hr01;
}),
(382,312,o),
(414,302,o),
(440,282,c),
(440,352,l),
(412,372,o),
(379,383,o),
(345,383,cs),
(270,383,o),
(219,321,o),
(145,321,cs,{
name = hr02;
}),
(114,321,o),
(84,331,o),
(60,352,c),
(60,282,l)
);
}
);
width = 500;
}
);
unicode = 126;
},
{
glyphname = logicalnot;
layers = (
{
layerId = master01;
shapes = (
{
closed = 1;
nodes = (
(60,282,l),
(374,282,l),
(374,149,l),
(440,149,l),
(440,352,l),
(60,352,l,{
name = hr00;
})
);
}
);
width = 500;
}
);
unicode = 172;
},
{
glyphname = asciicircum;
layers = (
{
layerId = master01;
shapes = (
{
closed = 1;
nodes = (
(215,646,l),
(80,352,l),
(150,352,l),
(250,569,l),
(350,352,l),
(420,352,l),
(285,646,l,{
name = hr00;
})
);
}
);
width = 500;
}
);
unicode = 94;
},
{
glyphname = infinity;
layers = (
{
layerId = master01;
shapes = (
{
closed = 1;
nodes = (
(30,150,o),
(117,134,o),
(207,134,cs),
(273,134,o),
(306,153,o),
(354,239,c),
(394,147,o),
(434,134,o),
(505,134,cs),
(595,134,o),
(682,150,o),
(682,325,cs),
(682,500,o),
(595,516,o),
(505,516,cs),
(434,516,o),
(394,503,o),
(354,411,c),
(306,497,o),
(273,516,o),
(207,516,cs),
(117,516,o),
(30,500,o),
(30,325,c,{
name = hr00;
})
);
},
{
closed = 1;
nodes = (
(286,257,ls),
(266,213,o),
(247,206,o),
(215,206,cs),
(178,206,ls),
(164,206,o),
(108,206,o),
(108,325,cs),
(108,444,o),
(164,444,o),
(178,444,cs),
(215,444,ls),
(247,444,o),
(266,437,o),
(286,393,cs),
(317,325,l)
);
},
{
closed = 1;
nodes = (
(426,393,ls),
(448,436,o),
(465,444,o),
(497,444,cs),
(534,444,ls),
(548,444,o),
(604,444,o),
(604,325,cs),
(604,206,o),
(548,206,o),
(534,206,cs),
(497,206,ls),
(465,206,o),
(448,214,o),
(426,257,cs),
(393,325,l)
);
}
);
width = 712;
}
);
unicode = 8734;
},
{
glyphname = integral;
layers = (
{
layerId = master01;
shapes = (
{
closed = 1;
nodes = (
(206,574,o),
(249,589,o),
(306,589,cs),
(329,589,o),
(344,586,o),
(356,584,c),
(374,645,l),
(352,652,o),
(327,658,o),
(308,658,cs),
(184,658,o),
(126,591,o),
(126,490,cs),
(126,415,o),
(168,49,o),
(168,-23,cs,{
name = hr01;
}),
(168,-110,o),
(125,-125,o),
(68,-125,cs),
(45,-125,o),
(30,-122,o),
(18,-120,c),
(0,-181,l),
(22,-188,o),
(47,-194,o),
(66,-194,cs),
(190,-194,o),
(248,-127,o),
(248,-26,cs),
(248,49,o),
(206,415,o),
(206,487,c)
);
}
);
width = 374;
}
);
unicode = 8747;
},
{
glyphname = Ohm;
lastChange = "2023-02-17 10:31:29 +0000";
layers = (
{
layerId = master01;
shapes = (
{
closed = 1;
nodes = (
(496,587,o),
(496,534,o),
(496,476,cs),
(496,299,ls),
(496,250,o),
(496,204,o),
(393,192,c),
(393,0,l),
(589,0,l),
(589,70,l),
(463,70,l),
(463,143,l),
(584,175,o),
(584,263,o),
(584,394,cs),
(584,561,o),
(584,658,o),
(332,658,cs),
(80,658,o),
(80,561,o),
(80,394,cs),
(80,263,o),
(80,175,o),
(201,143,c),
(201,70,l),
(75,70,l),
(75,0,l),
(271,0,l),
(271,192,l),
(168,204,o),
(168,250,o),
(168,299,cs),
(168,476,ls),
(168,534,o),
(168,587,o),
(333,587,c,{
name = hr00;
})
);
}
);
width = 664;
}
);
unicode = 8486;
},
{
glyphname = increment;
lastChange = "2023-02-17 10:31:29 +0000";
layers = (
{
layerId = master01;
shapes = (
{
closed = 1;
nodes = (
(513,0,l),
(337,646,l),
(211,646,l),
(35,0,l,{
name = hr00;
})
);
},
{
closed = 1;
nodes = (
(274,582,l),
(411,70,l),
(136,70,l)
);
}
);
width = 548;
}
);
unicode = 8710;
},
{
glyphname = product;
layers = (
{
layerId = master01;
shapes = (
{
closed = 1;
nodes = (
(40,576,l),
(100,576,l),
(100,-182,l),
(182,-182,l),
(182,576,l),
(410,576,l),
(410,-182,l),
(492,-182,l),
(492,576,l),
(552,576,l),
(552,646,l),
(40,646,l,{
name = hr00;
})
);
}
);
width = 592;
}
);
unicode = 8719;
},
{
glyphname = summation;
layers = (
{
layerId = master01;
shapes = (
{
closed = 1;
nodes = (
(70,576,l),
(332,232,l),
(70,-112,l),
(70,-182,l),
(522,-182,l),
(522,-112,l),
(166,-112,l),
(421,217,l),
(421,248,l),
(166,576,l),
(522,576,l),
(522,646,l),
(70,646,l,{
name = hr00;
})
);
}
);
width = 592;
}
);
unicode = 8721;
},
{
glyphname = radical;
layers = (
{
layerId = master01;
shapes = (
{
closed = 1;
nodes = (
(305,0,l),
(455,691,l),
(613,691,l),
(623,761,l),
(389,761,l),
(240,64,l),
(234,64,l),
(150,391,l),
(69,391,l),
(169,0,l,{
name = hr00;
})
);
}
);
width = 483;
}
);
unicode = 8730;
},
{
glyphname = partialdiff;
layers = (
{
layerId = master01;
shapes = (
{
closed = 1;
nodes = (
(467,479,o),
(469,504,o),
(469,526,cs),
(469,672,o),
(393,726,o),
(308,761,c),
(274,702,l),
(356,669,o),
(391,614,o),
(391,529,cs),
(391,512,o),
(390,494,o),
(387,475,c),
(365,485,o),
(334,491,o),
(292,491,cs),
(117,491,o),
(103,395,o),
(81,240,cs),
(74,193,o),
(68,151,o),
(68,116,cs),
(68,35,o),
(99,-12,o),
(221,-12,cs),
(398,-12,o),
(411,85,o),
(433,240,cs),
(463,452,l,{
name = hr00;
})
);
},
{
closed = 1;
nodes = (
(330,93,o),
(324,53,o),
(230,53,cs),
(159,53,o),
(144,75,o),
(144,108,cs),
(144,119,o),
(147,131,o),
(174,334,cs),
(181,386,o),
(188,426,o),
(282,426,cs),
(352,426,o),
(367,404,o),
(367,371,cs),
(367,360,o),
(365,347,o),
(337,145,c)
);
}
);
width = 513;
}
);
unicode = 8706;
},
{
glyphname = micro;
lastChange = "2023-02-17 10:31:29 +0000";
layers = (
{
layerId = master01;
shapes = (
{
closed = 1;
nodes = (
(90,-182,l),
(165,-182,l),
(165,16,l),
(184,-3,o),
(214,-12,o),
(263,-12,cs),
(382,-12,o),
(436,18,o),
(436,153,cs),
(436,520,l),
(354,520,l),
(354,142,ls),
(354,86,o),
(347,53,o),
(263,53,cs),
(179,53,o),
(172,86,o),
(172,142,cs),
(172,520,l),
(90,520,l,{
name = hr00;
})
);
}
);
width = 516;
}
);
unicode = 181;
},
{
glyphname = percent;
layers = (
{
layerId = master01;
shapes = (
{
closed = 1;
nodes = (
(298,0,l),
(473,646,l),
(428,646,l),
(253,0,l)
);
},
{
closed = 1;
nodes = (
(282,585,o),
(282,655,o),
(166,655,cs),
(51,655,o),
(51,585,o),
(51,475,cs),
(51,364,o),
(51,295,o),
(166,295,cs),
(282,295,o),
(282,364,o),
(282,475,c)
);
},
{
closed = 1;
nodes = (
(220,369,o),
(220,347,o),
(168,347,cs),
(113,347,o),
(113,369,o),
(113,394,cs),
(113,555,ls),
(113,580,o),
(113,603,o),
(165,603,cs),
(220,603,o),
(220,580,o),
(220,555,cs),
(220,394,l)
);
},
{
closed = 1;
nodes = (
(674,284,o),
(674,354,o),
(558,354,cs),
(443,354,o),
(443,284,o),
(443,174,cs),
(443,63,o),
(443,-6,o),
(558,-6,cs,{
name = hr01;
}),
(674,-6,o),
(674,63,o),
(674,174,c)
);
},
{
closed = 1;
nodes = (
(612,68,o),
(612,46,o),
(560,46,cs),
(505,46,o),
(505,68,o),
(505,93,cs),
(505,254,ls),
(505,279,o),
(505,302,o),
(557,302,cs),
(612,302,o),
(612,279,o),
(612,254,cs),
(612,93,l)
);
}
);
width = 726;
}
);
unicode = 37;
},
{
glyphname = perthousand;
layers = (
{
layerId = master01;
shapes = (
{
closed = 1;
nodes = (
(298,0,l),
(473,646,l),
(428,646,l),
(253,0,l)
);
},
{
closed = 1;
nodes = (
(282,585,o),
(282,655,o),
(166,655,cs),
(51,655,o),
(51,585,o),
(51,475,cs),
(51,364,o),
(51,295,o),
(166,295,cs),
(282,295,o),
(282,364,o),
(282,475,c)
);
},
{
closed = 1;
nodes = (
(220,369,o),
(220,347,o),
(168,347,cs),
(113,347,o),
(113,369,o),
(113,394,cs),
(113,555,ls),
(113,580,o),
(113,603,o),
(165,603,cs),
(220,603,o),
(220,580,o),
(220,555,cs),
(220,394,l)
);
},
{
closed = 1;
nodes = (
(674,284,o),
(674,354,o),
(558,354,cs),
(443,354,o),
(443,284,o),
(443,174,cs),
(443,63,o),
(443,-6,o),
(558,-6,cs,{
name = hr01;
}),
(674,-6,o),
(674,63,o),
(674,174,c)
);
},
{
closed = 1;
nodes = (
(612,68,o),
(612,46,o),
(560,46,cs),
(505,46,o),
(505,68,o),
(505,93,cs),
(505,254,ls),
(505,279,o),
(505,302,o),
(557,302,cs),
(612,302,o),
(612,279,o),
(612,254,cs),
(612,93,l)
);
},
{
closed = 1;
nodes = (
(974,284,o),
(974,354,o),
(858,354,cs),
(743,354,o),
(743,284,o),
(743,174,cs),
(743,63,o),
(743,-6,o),
(858,-6,cs),
(974,-6,o),
(974,63,o),
(974,174,c)
);
},
{
closed = 1;
nodes = (
(912,68,o),
(912,46,o),
(860,46,cs),
(805,46,o),
(805,68,o),
(805,93,cs),
(805,254,ls),
(805,279,o),
(805,302,o),
(857,302,cs),
(912,302,o),
(912,279,o),
(912,254,cs),
(912,93,l)
);
}
);
width = 1026;
}
);
unicode = 8240;
},
{
glyphname = lozenge;
layers = (
{
layerId = master01;
shapes = (
{
closed = 1;
nodes = (
(35,232,l),
(211,-182,l),
(337,-182,l),
(513,232,l),
(337,646,l),
(211,646,l,{
name = hr00;
})
);
},
{
closed = 1;
nodes = (
(430,232,l),
(274,-141,l),
(118,232,l),
(274,605,l)
);
}
);
width = 548;
}
);
unicode = 9674;
},
{
glyphname = commaaccentcomb;
lastChange = "2023-02-17 10:31:29 +0000";
layers = (
{
layerId = master01;
shapes = (
{
closed = 1;
nodes = (
(86,-50,o),
(64,-50,o),
(64,-105,cs),
(64,-140,o),
(72,-153,o),
(87,-158,c),
(59,-241,l),
(104,-265,l),
(145,-200,ls),
(158,-179,o),
(168,-159,o),
(174,-138,cs),
(176,-130,o),
(178,-119,o),
(178,-105,cs),
(178,-50,o),
(156,-50,o),
(121,-50,c,{
name = hr00;
})
);
}
);
width = 240;
}
);
unicode = 806;
},
{
glyphname = dieresis;
layers = (
{
layerId = master01;
shapes = (
{
closed = 1;
nodes = (
(93,717,o),
(73,717,o),
(73,667,cs),
(73,616,o),
(93,616,o),
(125,616,cs),
(157,616,o),
(177,616,o),
(177,667,cs),
(177,717,o),
(157,717,o),
(125,717,c,{
name = hr00;
})
);
},
{
closed = 1;
nodes = (
(273,717,o),
(253,717,o),
(253,667,cs),
(253,616,o),
(273,616,o),
(305,616,cs),
(337,616,o),
(357,616,o),
(357,667,cs),
(357,717,o),
(337,717,o),
(305,717,c)
);
}
);
width = 430;
}
);
unicode = 168;
},
{
glyphname = dotaccent;
layers = (
{
layerId = master01;
shapes = (
{
closed = 1;
nodes = (
(92,732,o),
(70,732,o),
(70,677,cs),
(70,621,o),
(92,621,o),
(127,621,cs),
(162,621,o),
(184,621,o),
(184,677,cs),
(184,732,o),
(162,732,o),
(127,732,c,{
name = hr00;
})
);
}
);
width = 254;
}
);
unicode = 729;
},
{
glyphname = grave;
layers = (
{
layerId = master01;
shapes = (
{
closed = 1;
nodes = (
(305,620,l),
(140,756,l),
(94,689,l),
(282,586,l,{
name = hr00;
})
);
}
);
width = 430;
}
);
unicode = 96;
},
{
glyphname = acute;
layers = (
{
layerId = master01;
shapes = (
{
closed = 1;
nodes = (
(157,586,l),
(345,689,l),
(299,756,l),
(134,620,l,{
name = hr00;
})
);
}
);
width = 430;
}
);
unicode = 180;
},
{
glyphname = hungarumlaut;
layers = (
{
layerId = master01;
shapes = (
{
closed = 1;
nodes = (
(62,586,l),
(230,689,l),
(180,755,l),
(35,619,l,{
name = hr00;
})
);
},
{
closed = 1;
nodes = (
(262,586,l),
(430,689,l),
(380,755,l),
(235,619,l)
);
}
);
width = 430;
}
);
unicode = 733;
},
{
glyphname = circumflex;
layers = (
{
layerId = master01;
shapes = (
{
closed = 1;
nodes = (
(349,640,l),
(215,756,l),
(82,640,l),
(112,603,l),
(215,670,l),
(318,603,l,{
name = hr00;
})
);
}
);
width = 430;
}
);
unicode = 710;
},
{
glyphname = caron;
layers = (
{
layerId = master01;
shapes = (
{
closed = 1;
nodes = (
(82,710,l),
(216,594,l),
(349,710,l),
(319,747,l),
(216,680,l),
(113,747,l,{
name = hr00;
})
);
}
);
width = 430;
}
);
unicode = 711;
},
{
glyphname = breve;
layers = (
{
layerId = master01;
shapes = (
{
closed = 1;
nodes = (
(272,591,o),
(301,612,o),
(323,658,cs),
(344,702,l),
(299,724,l),
(283,693,o),
(268,661,o),
(215,661,cs),
(162,661,o),
(147,693,o),
(131,724,c),
(86,702,l),
(107,658,ls),
(129,612,o),
(158,591,o),
(215,591,c,{
name = hr00;
})
);
}
);
width = 430;
}
);
unicode = 728;
},
{
glyphname = ring;
layers = (
{
layerId = master01;
shapes = (
{
closed = 1;
nodes = (
(233,712,o),
(248,709,o),
(248,677,cs),
(248,644,o),
(233,642,o),
(215,642,cs),
(197,642,o),
(182,644,o),
(182,677,cs),
(182,709,o),
(197,712,o),
(215,712,c,{
name = hr00;
})
);
},
{
closed = 1;
nodes = (
(163,761,o),
(128,753,o),
(128,677,cs),
(128,601,o),
(163,593,o),
(215,593,cs),
(267,593,o),
(302,601,o),
(302,677,cs),
(302,753,o),
(267,761,o),
(215,761,c)
);
}
);
width = 430;
}
);
unicode = 730;
},
{
glyphname = tilde;
layers = (
{
layerId = master01;
shapes = (
{
closed = 1;
nodes = (
(320,702,o),
(304,695,o),
(284,695,cs),
(246,695,o),
(218,722,o),
(183,722,cs,{
name = hr01;
}),
(159,722,o),
(140,717,o),
(99,675,c),
(121,637,l),
(141,650,o),
(157,657,o),
(177,657,cs),
(215,657,o),
(243,630,o),
(278,630,cs,{
name = hr02;
}),
(302,630,o),
(321,635,o),
(362,677,c),
(340,715,l)
);
}
);
width = 448;
}
);
unicode = 732;
},
{
glyphname = macron;
layers = (
{
layerId = master01;
shapes = (
{
closed = 1;
nodes = (
(80,635,l),
(320,635,l),
(320,698,l),
(80,698,l,{
name = hr00;
})
);
}
);
width = 400;
}
);
unicode = 175;
},
{
glyphname = cedilla;
layers = (
{
layerId = master01;
shapes = (
{
closed = 1;
nodes = (
(53,0,l),
(43,-70,l),
(58,-94,l),
(78,-94,ls),
(107,-94,o),
(107,-112,o),
(107,-122,cs),
(107,-136,o),
(107,-150,o),
(71,-150,cs),
(45,-150,o),
(41,-147,o),
(20,-142,c),
(10,-177,l),
(21,-183,o),
(47,-194,o),
(81,-194,cs),
(161,-194,o),
(172,-157,o),
(172,-118,cs),
(172,-85,o),
(162,-56,o),
(99,-56,cs),
(87,-56,l),
(94,0,l,{
name = hr00;
})
);
}
);
width = 182;
}
);
unicode = 184;
},
{
glyphname = ogonek;
layers = (
{
layerId = master01;
shapes = (
{
closed = 1;
nodes = (
(107,15,l),
(52,-44,ls),
(26,-72,o),
(16,-90,o),
(16,-113,cs),
(16,-143,o),
(27,-177,o),
(88,-177,cs),
(136,-177,o),
(170,-157,o),
(188,-144,c),
(178,-109,l),
(154,-125,o),
(133,-133,o),
(107,-133,cs),
(84,-133,o),
(81,-120,o),
(81,-107,cs),
(81,-91,o),
(105,-53,o),
(118,-33,cs),
(138,0,l),
(138,15,l,{
name = hr00;
})
);
}
);
width = 182;
}
);
unicode = 731;
},
{
glyphname = dieresis.case;
layers = (
{
layerId = master01;
shapes = (
{
closed = 1;
nodes = (
(93,862,o),
(73,862,o),
(73,812,cs),
(73,761,o),
(93,761,o),
(125,761,cs),
(157,761,o),
(177,761,o),
(177,812,cs),
(177,862,o),
(157,862,o),
(125,862,c,{
name = hr00;
})
);
},
{
closed = 1;
nodes = (
(273,862,o),
(253,862,o),
(253,812,cs),
(253,761,o),
(273,761,o),
(305,761,cs),
(337,761,o),
(357,761,o),
(357,812,cs),
(357,862,o),
(337,862,o),
(305,862,c)
);
}
);
width = 430;
}
);
},
{
glyphname = dotaccent.case;
layers = (
{
layerId = master01;
shapes = (
{
closed = 1;
nodes = (
(92,867,o),
(70,867,o),
(70,812,cs),
(70,756,o),
(92,756,o),
(127,756,cs),
(162,756,o),
(184,756,o),
(184,812,cs),
(184,867,o),
(162,867,o),
(127,867,c,{
name = hr00;
})
);
}
);
width = 254;
}
);
},
{
glyphname = grave.case;
layers = (
{
layerId = master01;
shapes = (
{
closed = 1;
nodes = (
(305,765,l),
(140,901,l),
(94,834,l),
(282,731,l,{
name = hr00;
})
);
}
);
width = 430;
}
);
},
{
glyphname = acute.case;
layers = (
{
layerId = master01;
shapes = (
{
closed = 1;
nodes = (
(147,731,l),
(335,834,l),
(289,901,l),
(124,765,l,{
name = hr00;
})
);
}
);
width = 430;
}
);
},
{
glyphname = hungarumlaut.case;
layers = (
{
layerId = master01;
shapes = (
{
closed = 1;
nodes = (
(62,731,l),
(230,834,l),
(180,900,l),
(35,764,l,{
name = hr00;
})
);
},
{
closed = 1;
nodes = (
(262,731,l),
(430,834,l),
(380,900,l),
(235,764,l)
);
}
);
width = 430;
}
);
},
{
glyphname = circumflex.case;
layers = (
{
layerId = master01;
shapes = (
{
closed = 1;
nodes = (
(349,775,l),
(215,891,l),
(82,775,l),
(112,738,l),
(215,805,l),
(318,738,l,{
name = hr00;
})
);
}
);
width = 430;
}
);
},
{
glyphname = caron.case;
layers = (
{
layerId = master01;
shapes = (
{
closed = 1;
nodes = (
(82,845,l),
(216,729,l),
(349,845,l),
(319,882,l),
(216,815,l),
(113,882,l,{
name = hr00;
})
);
}
);
width = 430;
}
);
},
{
glyphname = breve.case;
layers = (
{
layerId = master01;
shapes = (
{
closed = 1;
nodes = (
(272,736,o),
(301,757,o),
(323,803,cs),
(344,847,l),
(299,869,l),
(283,838,o),
(268,806,o),
(215,806,cs),
(162,806,o),
(147,838,o),
(131,869,c),
(86,847,l),
(107,803,ls),
(129,757,o),
(158,736,o),
(215,736,c,{
name = hr00;
})
);
}
);
width = 430;
}
);
},
{
glyphname = ring.case;
layers = (
{
layerId = master01;
shapes = (
{
closed = 1;
nodes = (
(233,847,o),
(248,844,o),
(248,812,cs),
(248,779,o),
(233,777,o),
(215,777,cs),
(197,777,o),
(182,779,o),
(182,812,cs),
(182,844,o),
(197,847,o),
(215,847,c,{
name = hr00;
})
);
},
{
closed = 1;
nodes = (
(163,896,o),
(128,888,o),
(128,812,cs),
(128,736,o),
(163,728,o),
(215,728,cs),
(267,728,o),
(302,736,o),
(302,812,cs),
(302,888,o),
(267,896,o),
(215,896,c)
);
}
);
width = 430;
}
);
},
{
glyphname = tilde.case;
layers = (
{
layerId = master01;
shapes = (
{
closed = 1;
nodes = (
(320,837,o),
(304,830,o),
(284,830,cs),
(246,830,o),
(218,857,o),
(183,857,cs,{
name = hr01;
}),
(159,857,o),
(140,852,o),
(99,810,c),
(121,772,l),
(141,785,o),
(157,792,o),
(177,792,cs),
(215,792,o),
(243,765,o),
(278,765,cs,{
name = hr02;
}),
(302,765,o),
(321,770,o),
(362,812,c),
(340,850,l)
);
}
);
width = 448;
}
);
},
{
glyphname = macron.case;
layers = (
{
layerId = master01;
shapes = (
{
closed = 1;
nodes = (
(80,780,l),
(320,780,l),
(320,843,l),
(80,843,l,{
name = hr00;
})
);
}
);
width = 400;
}
);
},
{
glyphname = caron.salt;
layers = (
{
layerId = master01;
shapes = (
{
closed = 1;
nodes = (
(86,730,o),
(64,730,o),
(64,675,cs),
(64,640,o),
(72,627,o),
(87,622,c),
(59,539,l),
(104,515,l),
(145,580,ls),
(158,601,o),
(168,621,o),
(174,642,cs),
(176,650,o),
(178,661,o),
(178,675,cs),
(178,730,o),
(156,730,o),
(121,730,c,{
name = hr00;
})
);
}
);
width = 240;
}
);
},
{
glyphname = eslash;
lastChange = "2023-02-17 10:31:29 +0000";
layers = (
{
layerId = master01;
shapes = (
{
closed = 1;
nodes = (
(89,231,l),
(338,358,l),
(308,416,l),
(59,289,l,{
name = hr00;
})
);
}
);
width = 386;
}
);
},
{
glyphname = ethbar;
lastChange = "2023-02-17 10:31:29 +0000";
layers = (
{
layerId = master01;
shapes = (
{
closed = 1;
nodes = (
(105,305,l),
(385,305,l),
(385,365,l),
(105,365,l,{
name = hr00;
})
);
}
);
width = 490;
}
);
},
{
glyphname = ringacute;
lastChange = "2023-02-17 10:31:29 +0000";
layers = (
{
layerId = master01;
shapes = (
{
closed = 1;
nodes = (
(357,823,l),
(275,750,l),
(260,759,o),
(239,761,o),
(215,761,cs),
(163,761,o),
(128,753,o),
(128,677,cs),
(128,601,o),
(163,593,o),
(215,593,cs),
(267,593,o),
(302,601,o),
(302,677,cs),
(302,687,o),
(301,697,o),
(300,705,c),
(403,756,l,{
name = hr00;
})
);
},
{
closed = 1;
nodes = (
(197,642,o),
(182,644,o),
(182,677,cs),
(182,709,o),
(197,712,o),
(215,712,cs),
(233,712,o),
(248,709,o),
(248,677,cs),
(248,644,o),
(233,642,o),
(215,642,c)
);
}
);
width = 430;
}
);
},
{
glyphname = thinbar;
lastChange = "2023-02-17 10:31:29 +0000";
layers = (
{
layerId = master01;
shapes = (
{
closed = 1;
nodes = (
(105,-100,l),
(155,-100,l),
(155,750,l),
(105,750,l,{
name = hr00;
})
);
}
);
width = 260;
}
);
},
{
glyphname = thinslash;
lastChange = "2023-02-17 10:31:29 +0000";
layers = (
{
layerId = master01;
shapes = (
{
closed = 1;
nodes = (
(90,-18,l),
(265,652,l),
(220,652,l),
(45,-18,l,{
name = hr00;
})
);
}
);
width = 310;
}
);
},
{
glyphname = ringacute.case;
lastChange = "2023-02-17 10:31:29 +0000";
layers = (
{
layerId = master01;
shapes = (
{
closed = 1;
nodes = (
(357,958,l),
(275,885,l),
(260,894,o),
(239,896,o),
(215,896,cs),
(163,896,o),
(128,888,o),
(128,812,cs),
(128,736,o),
(163,728,o),
(215,728,cs),
(267,728,o),
(302,736,o),
(302,812,cs),
(302,822,o),
(301,832,o),
(300,840,c),
(403,891,l,{
name = hr00;
})
);
},
{
closed = 1;
nodes = (
(197,777,o),
(182,779,o),
(182,812,cs),
(182,844,o),
(197,847,o),
(215,847,cs),
(233,847,o),
(248,844,o),
(248,812,cs),
(248,779,o),
(233,777,o),
(215,777,c)
);
}
